<svg height="512pt" viewBox="-15 0 512 512" width="512pt" xmlns="http://www.w3.org/2000/svg"><path d="M480.234 101.121l-67.562-97.84a7.607 7.607 0 0 0-12.516.004l-67.55 97.836a7.593 7.593 0 0 0-.477 7.856 7.607 7.607 0 0 0 6.73 4.07h17.145v14.297c-18.574 6.14-42.266 3.726-66.926 1.199-8.703-.89-17.703-1.813-26.543-2.352-26.246-1.597-50.183 12.461-61.527 35.485-9.57-1.2-19.211 1.23-27.238 7.023-9.903 7.145-15.715 18.242-15.95 30.438-.472 24.808 9.653 50.441 15.946 63.898-13.301 4.336-22.856 16.004-22.856 29.688 0 15.527 12.305 28.46 28.426 31.023 3.598 18.785 12.7 36.059 26.52 49.879 9.367 9.367 20.324 16.563 32.261 21.352v14.753h-33.574a45.522 45.522 0 0 0-23.418 6.461v-13.414h17.145a7.61 7.61 0 0 0 6.734-4.07 7.61 7.61 0 0 0-.477-7.855l-67.554-97.848a7.602 7.602 0 0 0-6.258-3.281c-1.93 0-3.758.738-5.149 2.015v-117.8h17.157a7.602 7.602 0 0 0 6.254-11.926L81.414 64.176a7.606 7.606 0 0 0-6.258-3.285 7.616 7.616 0 0 0-6.258 3.285l-67.55 97.84a7.603 7.603 0 0 0 6.257 11.922H24.75v76.25a7.604 7.604 0 1 0 15.207 0v-83.852a7.604 7.604 0 0 0-7.605-7.606H22.094L75.156 81.88l53.074 76.851h-10.27a7.601 7.601 0 0 0-7.6 7.606v147.086l-53.465 77.43a7.605 7.605 0 0 0 6.258 11.926h17.144v94.015h-40.34V280.605c0-4.199-3.406-7.601-7.605-7.601a7.6 7.6 0 0 0-7.602 7.601v223.79c0 4.199 3.402 7.605 7.602 7.605h416.867c4.199 0 7.605-3.406 7.605-7.605v-49.403a7.604 7.604 0 0 0-15.207 0v41.801H389.32v-41.246c0-14.504-6.707-27.832-18.105-36.461v-95.8c14.918-3.411 26.012-15.817 26.012-30.563s-11.094-27.149-26.012-30.563v-29.523c9.476-7.657 16.664-17.059 21.46-28.164 17.118-39.633-2.675-86.137-3.527-88.094a7.598 7.598 0 0 0-5.742-4.477 7.584 7.584 0 0 0-6.87 2.403 43.976 43.976 0 0 1-5.325 4.984v-13.848c0-4.199-3.402-7.605-7.602-7.605h-10.257l53.062-76.852 53.07 76.852H449.22a7.604 7.604 0 0 0-7.602 7.605v319.133a7.604 7.604 0 1 0 15.207 0V113.047h17.153a7.608 7.608 0 0 0 6.734-4.07 7.601 7.601 0 0 0-.477-7.856zM166.121 292.723c0-6.676 4.73-12.418 11.48-14.93v27.613c0 .754.012 1.508.028 2.258-6.762-2.508-11.508-8.258-11.508-14.941zm26.688 12.683v-29.68c12.039-2.242 22.246-9.886 29.82-22.48 2.676-4.453 4.633-8.894 6.012-12.605 18.605 8.468 65.21 25.082 114.843 7.203a108.394 108.394 0 0 0 11.844-5.07v62.632c0 44.809-36.453 81.266-81.262 81.266-21.703 0-42.109-8.453-57.457-23.8s-23.8-35.755-23.8-57.466zM343.504 409.73H309.94v-14.773c19.149-7.7 35.274-21.367 46.067-38.695v55.203a45.884 45.884 0 0 0-12.504-1.735zm-6.598 60.5l-18.707 4.676a7.605 7.605 0 0 0-3.531 12.754l9.406 9.406h-17.761l20.546-72.125h8.262zm-101.57 10.024a7.605 7.605 0 0 0-5.484-5.348l-18.707-4.676 1.785-45.289h8.265l20.551 72.125h-17.77l9.407-9.406a7.605 7.605 0 0 0 1.953-7.406zm8.379-55.313L261.566 435l-16.882 16.883-7.676-26.942zm60.629 0h6.703l-7.676 26.942L286.488 435zm-30.317 19.106l8.957 8.953-9.449 11.672-8.844-11.29zm-20.168 20.168l10.368 13.234-9.067 11.196-5.707-20.028zm39.938-.403l4.808 4.805-5.59 19.61-9.331-11.918zm-19.426 25.274l6.25 7.98h-12.71zm-.305-87.207c7.094 0 14.008-.777 20.668-2.234v13.253l-20.707 11.664-20.703-11.664v-13.246a97.34 97.34 0 0 0 20.742 2.227zM95.504 496.793V395.172c0-4.2-3.406-7.602-7.606-7.602H77.645l53.07-76.863 53.062 76.863H173.52a7.6 7.6 0 0 0-7.602 7.602v35.785a45.53 45.53 0 0 0-7.191 24.59v41.246zm78.434-41.246c0-14.516 10.16-26.695 23.742-29.82l-1.977 50.078a7.61 7.61 0 0 0 5.754 7.68l11.676 2.917-10.664 10.664h-28.531zm200.175 41.52h-28.531l-10.664-10.665 11.676-2.918a7.61 7.61 0 0 0 5.754-7.68l-1.977-50.074a30.382 30.382 0 0 1 9.234 3.786c9.086 5.629 14.508 15.359 14.508 26.03zm7.907-204.344c0 6.449-4.426 12.015-10.805 14.652V278.07c6.379 2.637 10.805 8.207 10.805 14.653zm-3.23-160.043c4.398 14.597 10.097 42.21-.075 65.765-6.973 16.14-20.563 27.95-40.387 35.09-56.074 20.207-110.008-10-110.539-10.3-2.11-1.215-4.672-1.337-6.89-.344s-3.836 2.992-4.34 5.37c-.067.31-6.399 28.926-26.946 32.583-5.07-10.176-17.054-36.91-16.586-61.414.141-7.371 3.657-14.078 9.645-18.399 4.05-2.922 8.781-4.433 13.601-4.433 2.329 0 4.68.351 6.985 1.07a7.607 7.607 0 0 0 9.387-4.61c7.546-20.277 27.226-33.007 48.968-31.687 8.524.52 17.364 1.426 25.914 2.3 33 3.38 66.989 6.864 91.262-10.991zm0 0"/><path d="M305.68 306.152c4.199 0 7.605-3.406 7.605-7.605v-12.348c0-4.199-3.406-7.605-7.605-7.605a7.607 7.607 0 0 0-7.606 7.605v12.348c0 4.2 3.406 7.605 7.606 7.605zm0 0M250.059 298.547v-12.348a7.604 7.604 0 1 0-15.207 0v12.348a7.604 7.604 0 0 0 15.207 0zm0 0M301.246 331.379a7.606 7.606 0 0 0-10.754 0c-4.387 4.387-10.219 6.8-16.426 6.8a23.07 23.07 0 0 1-16.421-6.8c-2.97-2.969-7.786-2.969-10.754 0s-2.97 7.785 0 10.754c7.492 7.492 17.336 11.238 27.175 11.238 9.844 0 19.688-3.746 27.18-11.238a7.606 7.606 0 0 0 0-10.754zm0 0"/></svg>