<svg height="640" viewBox="0 0 480 480" width="640" xmlns="http://www.w3.org/2000/svg"><path d="M472 304H8a8 8 0 0 0-8 8v160a8 8 0 0 0 8 8h464a8 8 0 0 0 8-8V312a8 8 0 0 0-8-8zm-192 16v32h-80v-32zm-128 0h32v40a8 8 0 0 0 8 8h96a8 8 0 0 0 8-8v-40h168v96H16v-96zM16 464v-32h448v32zm0 0M171.543 184H200a8.001 8.001 0 0 0 7.16-4.426l4.16-8.328 5.094 15.281A31.768 31.768 0 0 0 208 208c0 16.48 12.465 48 32 48s32-31.52 32-48a31.741 31.741 0 0 0-8.426-21.457l5.098-15.277 4.16 8.328A8 8 0 0 0 280 184h28.457c5.242 0 10.152-2.57 13.14-6.879a16.016 16.016 0 0 0 1.844-14.723l-16.058-42.796A24.087 24.087 0 0 0 288 104.238V57.48a39.538 39.538 0 0 0-6.887-22.449C257.145 0 244.238 0 240 0s-17.145 0-41.105 35.023A39.502 39.502 0 0 0 192 57.48v46.758a24.092 24.092 0 0 0-19.383 15.336l-16.058 42.824a16.016 16.016 0 0 0 1.843 14.723A15.993 15.993 0 0 0 171.543 184zm81.36-16l-2.673 8h-20.46l-2.672-8zM240 240c-5.984 0-16-20-16-32 0-8.836 7.164-16 16-16s16 7.164 16 16c0 12-10.016 32-16 32zm52.398-114.809L308.457 168h-23.512l-.699-1.39A7.859 7.859 0 0 0 288 160v-39.29a7.947 7.947 0 0 1 4.398 4.481zM208 57.481a23.58 23.58 0 0 1 4.098-13.419C227.28 21.863 236.992 16 240 16s12.719 5.863 27.91 28.07A23.586 23.586 0 0 1 272 57.48V152h-24v-48h-16v48h-24zm-20.398 67.703A7.945 7.945 0 0 1 192 120.71V160a7.859 7.859 0 0 0 3.754 6.61l-.7 1.39h-23.511zm0 0"/><path d="M240 80c13.254 0 24-10.746 24-24s-10.746-24-24-24-24 10.746-24 24 10.746 24 24 24zm0-32a8 8 0 1 1 0 16 8 8 0 0 1 0-16zm0 0M144 280a8 8 0 0 1 8-8 7.805 7.805 0 0 1 4.047 1.105 7.998 7.998 0 0 0 8.426-.128 7.998 7.998 0 0 0 3.64-7.602A11.584 11.584 0 0 1 168 264a8 8 0 0 1 16 0h16c-.004-11.695-8.434-21.688-19.96-23.652-11.532-1.97-22.798 4.66-26.68 15.691A24 24 0 1 0 152 304v-16a8 8 0 0 1-8-8zm0 0M352 280a24.079 24.079 0 0 0-25.36-23.96c-3.882-11.032-15.148-17.661-26.68-15.692-11.526 1.964-19.956 11.957-19.96 23.652h16a8 8 0 0 1 16 0c-.012.46-.047.918-.113 1.375a7.998 7.998 0 0 0 3.64 7.602 7.998 7.998 0 0 0 8.426.128A7.805 7.805 0 0 1 328 272a8 8 0 0 1 0 16v16c13.254 0 24-10.746 24-24zm0 0M360 64h16v64h-16zm0 0M360 144h16v16h-16zm0 0M408 112h16v48h-16zm0 0M408 176h16v16h-16zm0 0M448 152h16v48h-16zm0 0M448 216h16v16h-16zm0 0M360 176h16v16h-16zm0 0M104 64h16v64h-16zm0 0M104 144h16v16h-16zm0 0M56 112h16v48H56zm0 0M56 176h16v16H56zm0 0M16 152h16v48H16zm0 0M16 216h16v16H16zm0 0M104 176h16v16h-16zm0 0"/></svg>