<svg height="512" viewBox="0 0 64 64" width="512" xmlns="http://www.w3.org/2000/svg"><path d="M60 7h-1V5c0-2.206-1.794-4-4-4s-4 1.794-4 4v2h-2.142c-.447-1.72-2-3-3.858-3s-3.411 1.28-3.858 3H22.858c-.447-1.72-2-3-3.858-3s-3.411 1.28-3.858 3H13V5c0-2.206-1.794-4-4-4S5 2.794 5 5v2H4c-1.654 0-3 1.346-3 3s1.346 3 3 3h1v2c0 2.206 1.794 4 4 4s4-1.794 4-4v-2h2.142A3.995 3.995 0 0 0 18 15.858V18c0 2.071.458 4.051 1.324 5.906a7.002 7.002 0 0 0-.288 1.38 6.97 6.97 0 0 0-4.2 10.005A6.966 6.966 0 0 0 13 40c0 3.544 2.649 6.473 6.069 6.931A7.005 7.005 0 0 0 25 52.92v4.222c-1.72.447-3 2-3 3.858v2h8v-2c0-1.858-1.28-3.411-3-3.858v-4.217a7.014 7.014 0 0 0 5-3.322 7.014 7.014 0 0 0 5 3.322v4.217c-1.72.447-3 2-3 3.858v2h8v-2c0-1.858-1.28-3.411-3-3.858v-4.221c3.155-.454 5.639-3.012 5.964-6.207a6.97 6.97 0 0 0 4.2-10.005A6.966 6.966 0 0 0 51 32c0-3.544-2.649-6.473-6.069-6.931a7.052 7.052 0 0 0-.253-1.168A13.832 13.832 0 0 0 46 18v-2.142A3.995 3.995 0 0 0 48.858 13H51v2c0 2.206 1.794 4 4 4s4-1.794 4-4v-2h1c1.654 0 3-1.346 3-3s-1.346-3-3-3zM4 11c-.551 0-1-.449-1-1s.449-1 1-1h1v2zm7 4c0 1.103-.897 2-2 2s-2-.897-2-2V5c0-1.103.897-2 2-2s2 .897 2 2zm2-6h2v2h-2zm28 2H23V9h18zm-24 1V8c0-1.103.897-2 2-2s2 .897 2 2v4c0 1.103-.897 2-2 2s-2-.897-2-2zm11 49h-4c0-1.103.897-2 2-2s2 .897 2 2zm12 0h-4c0-1.103.897-2 2-2s2 .897 2 2zm9-29c0 2.757-2.243 5-5 5v2a6.944 6.944 0 0 0 3.574-.992A4.96 4.96 0 0 1 48 40a4.977 4.977 0 0 1-4.169 4.924l-.831.229V46c0 2.757-2.243 5-5 5s-5-2.243-5-5h-2c0 2.757-2.243 5-5 5s-5-2.243-5-5 2.243-5 5-5v-2c-3.488 0-6.379 2.566-6.906 5.908C16.769 44.48 15 42.447 15 40c0-2.757 2.243-5 5-5v-2a6.944 6.944 0 0 0-3.574.992A4.96 4.96 0 0 1 16 32a4.977 4.977 0 0 1 4.169-4.924l.831-.229V26c0-2.757 2.243-5 5-5s5 2.243 5 5h2c0-2.757 2.243-5 5-5s5 2.243 5 5-2.243 5-5 5v2c3.488 0 6.379-2.566 6.906-5.908C47.231 27.52 49 29.553 49 32zM38 19a7.003 7.003 0 0 0-6 3.397A7.003 7.003 0 0 0 26 19a6.984 6.984 0 0 0-5.432 2.599A11.903 11.903 0 0 1 20 18v-2.142A3.995 3.995 0 0 0 22.858 13h18.284A3.995 3.995 0 0 0 44 15.858V18c0 1.24-.203 2.44-.566 3.595A6.991 6.991 0 0 0 38 19zm9-7c0 1.103-.897 2-2 2s-2-.897-2-2V8c0-1.103.897-2 2-2s2 .897 2 2zm2-1V9h2v2zm8 4c0 1.103-.897 2-2 2s-2-.897-2-2V5c0-1.103.897-2 2-2s2 .897 2 2zm3-4h-1V9h1c.551 0 1 .449 1 1s-.449 1-1 1z"/><path d="M23 46c0 1.654 1.346 3 3 3v-2c-.551 0-1-.449-1-1s.449-1 1-1v-2c-1.654 0-3 1.346-3 3zM38 42v2c2.206 0 4-1.794 4-4h-2c0 1.103-.897 2-2 2zM37 35c0 1.103-.897 2-2 2v2c2.206 0 4-1.794 4-4zM30 42v2c2.206 0 4-1.794 4-4h-2c0 1.103-.897 2-2 2zM32 32c0-2.206-1.794-4-4-4v2c1.103 0 2 .897 2 2zM21 29v2c1.103 0 2 .897 2 2h2c0-2.206-1.794-4-4-4zM41 26c0-1.654-1.346-3-3-3v2c.551 0 1 .449 1 1s-.449 1-1 1v2c1.654 0 3-1.346 3-3z"/></svg>