<svg xmlns="http://www.w3.org/2000/svg" width="512" height="512"><path d="M223.788 126.561a9.95 9.95 0 0 0 5.344-1.555l76.326-48.369a9.986 9.986 0 0 0 7.016 6.342 10.01 10.01 0 0 0 2.405.294c4.492 0 8.575-3.048 9.701-7.604l4.579-18.541a10.002 10.002 0 0 0-9.708-12.398h-18.542c-5.523 0-10 4.478-10 10 0 2.307.789 4.426 2.102 6.118l-74.585 47.266c-4.665 2.956-6.05 9.134-3.094 13.799a9.994 9.994 0 0 0 8.456 4.648zM240.84 322.99c2.63 0 5.21-1.07 7.07-2.931a10.072 10.072 0 0 0 2.93-7.069c0-2.631-1.07-5.21-2.93-7.07a10.076 10.076 0 0 0-7.07-2.93c-2.64 0-5.21 1.069-7.07 2.93a10.074 10.074 0 0 0-2.93 7.07c0 2.63 1.07 5.21 2.93 7.069a10.072 10.072 0 0 0 7.07 2.931zM50 273.12c-2.63 0-5.21 1.069-7.07 2.93a10.058 10.058 0 0 0-2.93 7.07c0 2.63 1.07 5.21 2.93 7.069A10.077 10.077 0 0 0 50 293.12c2.63 0 5.21-1.07 7.07-2.931 1.86-1.87 2.93-4.439 2.93-7.069s-1.07-5.21-2.93-7.07-4.44-2.93-7.07-2.93z"/><path d="M481.766 313.227V40.033C481.766 17.959 463.807 0 441.732 0H40.034C17.959 0 0 17.959 0 40.033V315.967C0 338.041 17.959 356 40.034 356h150.804v34.051c-28.851 1.057-52 24.844-52 53.949 0 5.522 4.477 10 10 10H290.17c20.893 34.687 58.902 57.948 102.251 57.998l.046.002.023-.001.07.001C458.419 512 512 458.419 512 392.559c0-30.423-11.439-58.22-30.234-79.332zM112.353 140.424l72.353 72.353v60.34h-72.353V140.424zm92.353 74.036l72.353-45.852v104.509h-72.353V214.46zm92.353-58.526l72.354-45.852v163.036h-72.354V155.934zm92.354 117.183V97.407l72.353-45.852v221.562h-72.353zm72.352 20v2.146a122.123 122.123 0 0 0-3.12-2.146h3.12zM40.034 20h401.698c7.269 0 13.626 3.904 17.138 9.713L196.314 196.101l-86.397-86.397c-3.904-3.904-10.237-3.904-14.142 0L20 185.478V40.033C20 28.987 28.987 20 40.034 20zM20 315.967V213.763l72.353-72.353v131.708h-2.358c-5.523 0-10 4.478-10 10s4.477 10 10 10h236.477c-16.278 10.854-29.755 25.592-39.09 42.883H40.034C28.987 336 20 327.013 20 315.967zM278.847 356a118.864 118.864 0 0 0-5.698 34h-62.312v-34h68.01zm-118.509 78c4.28-13.883 17.23-24 32.5-24h81.557a118.45 118.45 0 0 0 6.141 24H160.338zm295.329 35.352c-13.539 11.146-30.064 18.788-48.177 21.527l19.045-49.234 17.602 3.849c6.68 1.46 11.529 7.483 11.529 14.322v9.536zm-75.148-35.745a42.079 42.079 0 0 0 23.937.041 18.58 18.58 0 0 0 2.81 2.375l-14.801 38.261-14.8-38.258a18.584 18.584 0 0 0 2.854-2.419zm39.216-82.611c0 5.53-4.5 10.03-10.031 10.03h-39.363v-4.944c0-9.052 7.364-16.415 16.415-16.415h32.979v11.329zm-10.03 30.03c1.729 0 3.421-.155 5.071-.437v12.558c0 12.251-9.967 22.218-22.217 22.218s-22.217-9.967-22.217-22.218v-12.121h39.363zm-51.304 60.632l19.03 49.193c-18.036-2.765-34.49-10.394-47.98-21.499v-9.55c0-6.834 4.844-12.856 11.519-14.32l17.431-3.824zm115.658 7.809c-3.678-11.589-13.349-20.822-25.649-23.511l-23.925-5.231c6.404-7.404 10.292-17.042 10.292-27.577V367.5a29.846 29.846 0 0 0 4.959-16.504v-21.329c0-5.522-4.477-10-10-10h-42.979c-20.079 0-36.415 16.336-36.415 36.415v14.944c0 .356.02.708.057 1.055-.036.346-.056.696-.056 1.052v20.015c0 10.522 3.878 20.15 10.269 27.551l-23.926 5.249c-12.291 2.696-21.955 11.93-25.629 23.515-11.298-16.134-17.939-35.757-17.939-56.904 0-54.832 44.609-99.441 99.441-99.441S492 337.727 492 392.559c0 21.149-6.642 40.773-17.941 56.908z"/><path d="M189.99 147.979c2.63 0 5.2-1.069 7.07-2.939 1.86-1.86 2.93-4.431 2.93-7.061s-1.07-5.21-2.93-7.08a10.088 10.088 0 0 0-7.07-2.92c-2.64 0-5.21 1.061-7.08 2.92a10.1 10.1 0 0 0-2.93 7.08c0 2.63 1.07 5.21 2.93 7.061a10.065 10.065 0 0 0 7.08 2.939z"/></svg>