<svg height="512" viewBox="0 0 64 64" width="512" xmlns="http://www.w3.org/2000/svg"><path d="M30 45h2v2h-2zM22 45h2v2h-2zM26 45h2v2h-2z"/><path d="M63 18c0-9.374-7.626-17-17-17-8.249 0-15.268 5.962-16.703 14h-2.992a10.95 10.95 0 0 0-3.001-1.491A6.987 6.987 0 0 0 26 8c0-3.859-3.14-7-7-7s-7 3.141-7 7a6.987 6.987 0 0 0 2.696 5.509c-1.083.342-2.09.852-3.001 1.491H6c-2.757 0-5 2.243-5 5v26c0 2.757 2.243 5 5 5h16v2h-5.5L13 57.667V63h28v-5.333L37.5 53H32v-2h16c2.757 0 5-2.243 5-5V33.472C59.093 30.719 63 24.725 63 18zM20.293 34.293l-1.121 1.121A4.022 4.022 0 0 0 18 38.242V41h-4v-8h10v8h-4v-2.758c0-.526.213-1.042.586-1.414l1.121-1.121zM13.61 16.151l1.848 9.239L19 20.667l3.542 4.723 1.848-9.239C27.137 17.693 29 20.631 29 24v9c0 1.103-.897 2-2 2h-1V21h-2v10H14V21h-2v14h-1c-1.103 0-2-.897-2-2v-9c0-3.369 1.863-6.307 4.61-7.849zM18 15h2c.152 0 .299.015.449.023L19 17.197l-1.45-2.174c.15-.008.298-.023.45-.023zm4.457.617l-.999 4.993-1.233-1.645zm-5.915 4.993l-.999-4.992 2.232 3.348zM26 37h1c2.206 0 4-1.794 4-4v-9a10.95 10.95 0 0 0-2.521-7H48c1.654 0 3 1.346 3 3v21H26zM46 3c1.413 0 2.923 2.311 3.91 6h-7.826C43.087 5.258 44.626 3 46 3zm4.366 8c.288 1.51.49 3.185.578 4.98A4.95 4.95 0 0 0 48 15h-6.887c.105-1.436.281-2.776.514-4zm10.583 6h-7.968a40.234 40.234 0 0 0-.586-6h6.861a14.878 14.878 0 0 1 1.693 6zm-7.993 2.568l.016.001c.007-.187.006-.379.01-.568h7.98a14.96 14.96 0 0 1-1.697 6H53v-5c0-.149-.031-.288-.044-.433zM57.972 9h-5.987c-.533-2.182-1.276-4.089-2.211-5.5A15.02 15.02 0 0 1 57.972 9zM42.229 3.494c-.943 1.424-1.681 3.347-2.21 5.506h-5.991a15.036 15.036 0 0 1 8.201-5.506zM32.748 11H39.6a38.428 38.428 0 0 0-.491 4h-7.784a14.88 14.88 0 0 1 1.423-4zM14 8c0-2.757 2.243-5 5-5s5 2.243 5 5-2.243 5-5 5-5-2.243-5-5zm-8 9h3.521A10.95 10.95 0 0 0 7 24v9c0 2.206 1.794 4 4 4h1v4H3V20c0-1.654 1.346-3 3-3zm11.5 38H22v2h-6zM15 61v-2h24v2zm21.5-6l1.5 2h-6v-2zM30 57h-6v-6h6zm18-8H6c-1.654 0-3-1.346-3-3v-3h48v3c0 1.654-1.346 3-3 3zm5-17.749V27h5a14.97 14.97 0 0 1-5 4.251z"/><path d="M47 19H35c-1.103 0-2 .897-2 2v10c0 1.103.897 2 2 2h12c1.103 0 2-.897 2-2V21c0-1.103-.897-2-2-2zM35 31V21h12l.001 10z"/><path d="M37 23h8v2h-8zM37 27h8v2h-8zM39 37h2v2h-2zM47 37h2v2h-2zM43 37h2v2h-2z"/></svg>