<svg height="512pt" viewBox="-15 0 511 512" width="512pt" xmlns="http://www.w3.org/2000/svg"><path d="M411.363 49.207a7.56 7.56 0 0 0 7.559-7.559 7.559 7.559 0 0 0-7.559-7.554h-.199a7.555 7.555 0 0 0-7.555 7.554 7.556 7.556 0 0 0 7.555 7.559zm0 0M375.129 49.207a7.557 7.557 0 1 0 0-15.113h-.227a7.557 7.557 0 0 0 0 15.113zm0 0M338.867 49.375a7.559 7.559 0 0 0 7.559-7.555 7.56 7.56 0 0 0-7.559-7.558h-.199a7.556 7.556 0 0 0-7.555 7.558 7.555 7.555 0 0 0 7.555 7.555zm0 0"/><path d="M452.785 0H28.187C12.922 0 .5 12.414.5 27.68v456.613C.5 499.57 12.922 512 28.188 512h424.597c15.281 0 27.715-12.43 27.715-27.707v-88.902a7.556 7.556 0 0 0-7.559-7.555 7.555 7.555 0 0 0-7.554 7.555v88.902c0 6.945-5.653 12.594-12.602 12.594H28.187c-6.933 0-12.574-5.649-12.574-12.594V87.805h190.14a7.557 7.557 0 0 0 0-15.113H15.614V27.68c0-6.93 5.64-12.567 12.575-12.567h424.597c6.95 0 12.602 5.637 12.602 12.567V72.69H240.37a7.556 7.556 0 0 0-7.555 7.559 7.555 7.555 0 0 0 7.555 7.555h225.016v272.953a7.557 7.557 0 1 0 15.113 0V27.68C480.5 12.414 468.066 0 452.785 0zm0 0"/><path d="M266.219 41.82a7.557 7.557 0 0 0-7.559-7.558H73.75a7.56 7.56 0 0 0 0 15.117h184.91c4.176-.004 7.559-3.387 7.559-7.559zm0 0M296.816 378.953l3.743 36.68c.93 9.012 5.82 16.426 12.765 19.347 3.613 1.524 10.867 3.04 19.516-3.386l17.277 19.402a12.034 12.034 0 0 0 9.067 4.09c2.836 0 5.683-.992 7.976-3.008l.031-.023 19.348-17.188c2.398-2.137 3.816-5.09 4.008-8.312.187-3.239-.89-6.336-3.02-8.723l-17.293-19.465c7.395-7.8 6.75-15.168 5.668-18.933-2.078-7.247-8.867-12.985-17.722-14.97l-34.442-7.702c-8.683-2.297-15.566-1.422-20.46 2.59-4.876 4-7.06 10.5-6.485 19.328l.023.273zm16.047-7.914c.489-.402 2.614-.848 7.121.363.102.028.204.051.305.075l34.586 7.738c3.637.812 6.066 2.87 6.5 4.39.441 1.54-1.414 3.668-2.375 4.637l-4.398 3.906a7.583 7.583 0 0 0-2.528 5.204 7.582 7.582 0 0 0 1.895 5.468l20.242 22.785-14.781 13.125-20.278-22.773a7.569 7.569 0 0 0-5.644-2.531c-1.852 0-3.649.68-5.035 1.922l-4.36 3.894c-1.09.844-3.433 2.434-4.93 1.809-1.456-.613-3.206-3.262-3.59-6.957l-3.726-36.528c-.262-4.3.535-6.148.996-6.527zm0 0M141.113 290.09h-.172a7.555 7.555 0 0 0-7.554 7.555 7.556 7.556 0 0 0 7.554 7.558h.172a7.56 7.56 0 0 0 7.559-7.558 7.559 7.559 0 0 0-7.559-7.555zm0 0M140.29 281.965h.198a7.557 7.557 0 1 0 0-15.113h-.199a7.555 7.555 0 0 0-7.555 7.554 7.556 7.556 0 0 0 7.555 7.559zm0 0"/><path d="M201.844 331.926c13.316 0 23.172-3.903 28.496-11.29 4.965-6.886 5.597-16.019 1.879-27.171-1.446-4.278-3.09-8.34-4.89-12.094-9.892-20.426-26.88-36.258-47.798-44.973 9.922-9.394 15.633-21.683 15.633-34.257v-17.375c.16-2.047.102-4.27.043-6.254-.016-.617-.035-1.203-.043-1.664-.207-36.5-26.605-52.805-52.738-52.805h-.18c-13.812.043-27.535 4.691-37.652 12.758-11.582 9.23-17.961 22.414-17.961 37.113v28.227c0 13.004 6.144 25.25 15.828 34.367-20.809 8.758-37.703 24.55-47.547 44.89-1.797 3.735-3.437 7.797-4.89 12.094-3.72 11.117-3.09 20.246 1.87 27.137 5.32 7.39 15.18 11.3 28.516 11.3h121.434zM101.746 173.914c0-22.5 20.89-34.7 40.547-34.758h.129c17.289 0 37.473 9.887 37.633 37.832v.024h-19.153c-16.164 0-22.28-3.688-28.187-7.246a90.28 90.28 0 0 1-3.172-2.02c-3.266-2.14-6.633-4.348-10.82-4.348-.5 0-1.012.036-1.535.102-5.657.719-9.504 5.238-12.805 9.996-1.223 1.75-2.004 2.629-2.637 3.07zm0 18.14c7.492-.597 11.66-5.081 15.04-9.921 1.073-1.547 1.85-2.504 2.378-3.086.64.39 1.414.898 2.094 1.344 1.058.695 2.262 1.48 3.648 2.32 6.598 3.973 15.63 9.414 35.996 9.414h19.153v10.016c0 10.453-6.18 20.828-16.5 27.742-6.938 4.601-15 7.09-22.594 7.07-6.25-.039-12.324-1.61-17.758-4.281a7.557 7.557 0 0 0-1.457-.75c-11.652-6.285-20-17.695-20-29.781zM64.16 311.798c-2.437-3.39-1.238-9.219.192-13.488 1.25-3.696 2.66-7.184 4.175-10.348 9.72-20.074 27.735-34.852 49.676-40.926 6.98 3.16 14.684 4.98 22.664 5.031h.293c7.582 0 15.367-1.777 22.625-5.09 22.055 6 40.168 20.801 49.93 40.961 1.527 3.184 2.937 6.672 4.18 10.34 1.43 4.297 2.625 10.133.183 13.524-2.297 3.183-8.215 5.011-16.234 5.011h-.016v-24.89a7.557 7.557 0 0 0-15.113 0v24.89H94.289v-24.89a7.557 7.557 0 0 0-15.113 0v24.871c-7.403-.176-12.84-1.977-15.016-4.996zm0 0M414.453 234.516h-83.808a7.555 7.555 0 0 0-7.555 7.554 7.556 7.556 0 0 0 7.555 7.559h83.808a7.557 7.557 0 1 0 0-15.113zm0 0M414.453 205.297h-83.808a7.555 7.555 0 0 0-7.555 7.555 7.556 7.556 0 0 0 7.555 7.558h83.808a7.557 7.557 0 1 0 0-15.113zm0 0M295.906 207.563l-21.945 22.378-8.434-6.285c-3.343-2.496-8.078-1.804-10.574 1.543a7.552 7.552 0 0 0 1.543 10.574l13.723 10.23a7.517 7.517 0 0 0 4.515 1.5c1.97 0 3.926-.769 5.399-2.265l26.562-27.093a7.561 7.561 0 0 0-.101-10.688 7.554 7.554 0 0 0-10.688.106zm0 0M422.012 320.262a7.557 7.557 0 0 0-7.559-7.559h-83.808a7.557 7.557 0 1 0 0 15.113h83.808a7.556 7.556 0 0 0 7.559-7.554zm0 0M414.453 283.516h-83.808a7.555 7.555 0 0 0-7.555 7.554 7.556 7.556 0 0 0 7.555 7.559h83.808a7.557 7.557 0 1 0 0-15.113zm0 0M256.496 313.992l13.723 10.23a7.551 7.551 0 0 0 9.914-.77l26.562-27.089a7.561 7.561 0 0 0-.101-10.687 7.558 7.558 0 0 0-10.688.105l-21.945 22.38-8.434-6.286a7.557 7.557 0 0 0-9.03 12.117zm0 0M414.453 156.297h-83.808a7.555 7.555 0 0 0-7.555 7.555 7.556 7.556 0 0 0 7.555 7.558h83.808a7.557 7.557 0 1 0 0-15.113zm0 0M414.453 127.105h-83.808a7.555 7.555 0 0 0-7.555 7.555 7.556 7.556 0 0 0 7.555 7.559h83.808a7.557 7.557 0 1 0 0-15.114zm0 0M306.59 129.266c-2.977-2.922-7.766-2.875-10.688.105l-21.941 22.379-8.434-6.285a7.553 7.553 0 0 0-10.574 1.543c-2.496 3.344-1.805 8.078 1.54 10.574l13.722 10.23a7.533 7.533 0 0 0 4.515 1.5c1.973 0 3.93-.765 5.399-2.265l26.566-27.094a7.558 7.558 0 0 0-.105-10.687zm0 0M45.012 385.102c0 13.953 11.351 25.3 25.304 25.3 13.957 0 25.309-11.347 25.309-25.3 0-13.95-11.352-25.297-25.309-25.297-13.953 0-25.304 11.347-25.304 25.297zm35.496 0c0 5.617-4.57 10.183-10.192 10.183-5.617 0-10.187-4.566-10.187-10.183 0-5.614 4.57-10.184 10.187-10.184 5.621 0 10.192 4.57 10.192 10.184zm0 0M114.504 385.102c0 13.953 11.351 25.3 25.305 25.3s25.304-11.347 25.304-25.3c0-13.95-11.351-25.297-25.304-25.297s-25.305 11.347-25.305 25.297zm35.496 0c0 5.617-4.574 10.183-10.191 10.183-5.621 0-10.192-4.566-10.192-10.183 0-5.614 4.57-10.184 10.192-10.184S150 379.488 150 385.102zm0 0M209.3 410.402c13.954 0 25.305-11.347 25.305-25.3 0-13.95-11.351-25.297-25.304-25.297s-25.309 11.347-25.309 25.297c0 13.953 11.356 25.3 25.309 25.3zm0-35.484c5.618 0 10.188 4.57 10.188 10.184 0 5.617-4.57 10.183-10.187 10.183-5.621 0-10.192-4.566-10.192-10.183 0-5.614 4.57-10.184 10.192-10.184zm0 0"/></svg>