<svg xmlns="http://www.w3.org/2000/svg" viewBox="0 0 64 64" width="512" height="512"><g data-name="Time Management"><path d="M21 38h-2a2 2 0 0 1-4 0h-2a4 4 0 0 0 8 0zM34.816 26H40v-2h-5.184A3 3 0 0 0 33 22.184V15h-2v7.184A2.993 2.993 0 1 0 34.816 26zM31 25a1 1 0 1 1 1 1 1 1 0 0 1-1-1zM31 10h2v2h-2zM40.486 15.1l1.414-1.414 1.414 1.414-1.414 1.414zM45 24h2v2h-2zM40.486 34.9l1.414-1.415 1.414 1.414-1.414 1.414zM31 38h2v2h-2zM20.687 15.1l1.414-1.414 1.414 1.414-1.414 1.414z"/><path d="M61 42h-3.466a9.751 9.751 0 0 0-.673-1.617l2.456-2.456a1 1 0 0 0 0-1.414l-2.83-2.83a1 1 0 0 0-1.414 0l-2.455 2.455c-.129-.068-.264-.125-.4-.187A23 23 0 1 0 9 25c0 .333.016.658.031.985A9.931 9.931 0 0 0 7 32v3a1 1 0 0 0 1 1v1a9 9 0 0 0 5 8.05v1.186l-5.846 1.59A7.031 7.031 0 0 0 2 54.58V61a1 1 0 0 0 1 1h28a1 1 0 0 0 1-1v-6.42a7.032 7.032 0 0 0-5.157-6.755L21 46.236v-1.044a22.882 22.882 0 0 0 13.519 2.667A.968.968 0 0 0 35 48h3.466a9.751 9.751 0 0 0 .673 1.617l-2.456 2.456a1 1 0 0 0 0 1.414l2.83 2.83a1 1 0 0 0 1.414 0l2.456-2.456a9.751 9.751 0 0 0 1.617.673V58a1 1 0 0 0 1 1h4a1 1 0 0 0 1-1v-3.466a9.751 9.751 0 0 0 1.617-.673l2.456 2.456a1 1 0 0 0 1.414 0l2.83-2.83a1 1 0 0 0 0-1.414l-2.456-2.456A9.751 9.751 0 0 0 57.534 48H61a1 1 0 0 0 1-1v-4a1 1 0 0 0-1-1zM9 32a8 8 0 0 1 16 0v1.951a4.968 4.968 0 0 1-3.764-2.715l-.341-.683a1 1 0 0 0-.735-.54 1.014 1.014 0 0 0-.867.28l-1.657 1.657A6.954 6.954 0 0 1 12.687 34H9zm17 5v-1a1 1 0 0 0 1-1v-3a9.957 9.957 0 0 0-11.757-9.836 17.009 17.009 0 1 1 10 18.431A8.949 8.949 0 0 0 26 37zm-16 0v-1h2.687a8.939 8.939 0 0 0 6.363-2.636l.7-.7A6.943 6.943 0 0 0 24 35.787V37a7 7 0 0 1-14 0zm1 11.852l1.4-.381 3.6 3V54h2v-2.531l3.6-3 1.4.381v1.734l-6 6-6-6zM17 46a8.971 8.971 0 0 0 2-.232V47a.989.989 0 0 0 .349.743L17 49.7l-2.349-1.956A.989.989 0 0 0 15 47v-1.232A8.971 8.971 0 0 0 17 46zm13 8.58V60H4v-5.42a5.024 5.024 0 0 1 3.683-4.825L9 49.4V51a1 1 0 0 0 .293.707l7 7a1 1 0 0 0 1.414 0l7-7A1 1 0 0 0 25 51v-1.6l1.314.358A5.026 5.026 0 0 1 30 54.58zm-7.2-10.7a9.066 9.066 0 0 0 1.441-1.546 19 19 0 1 0-11.093-19.561 10.01 10.01 0 0 0-2.1 1.207A20.967 20.967 0 1 1 22.8 43.875zm21.245.711a23.112 23.112 0 0 0 4.409-3.533A3.987 3.987 0 1 1 44 45a3.751 3.751 0 0 1 .04-.414zM60 46h-3.23a1 1 0 0 0-.975.776 7.731 7.731 0 0 1-1.026 2.463 1 1 0 0 0 .134 1.248L57.2 52.78l-1.42 1.42-2.293-2.3a1 1 0 0 0-1.248-.134 7.731 7.731 0 0 1-2.463 1.034 1 1 0 0 0-.776.97V57h-2v-3.23a1 1 0 0 0-.776-.975 7.731 7.731 0 0 1-2.463-1.026 1 1 0 0 0-1.248.134L40.22 54.2l-1.42-1.42 2.3-2.293a1 1 0 0 0 .134-1.248 7.731 7.731 0 0 1-1.026-2.463.975.975 0 0 0-.106-.253q.995-.375 1.943-.836a6 6 0 1 0 7.919-6.345q.645-.805 1.217-1.666a7.3 7.3 0 0 1 1.059.554 1 1 0 0 0 1.25-.133l2.29-2.297 1.42 1.42-2.3 2.293a1 1 0 0 0-.134 1.248 7.731 7.731 0 0 1 1.034 2.463 1 1 0 0 0 .97.776H60z"/></g></svg>