<svg xmlns="http://www.w3.org/2000/svg" viewBox="0 0 481.072 481.072"><path d="M455.078 0h-208c-13.232 0-24 10.768-24 24v128c0 4.416 3.576 8 8 8s8-3.584 8-8V24c0-4.408 3.584-8 8-8h160v304c0 4.416 3.576 8 8 8s8-3.584 8-8V16h32c4.416 0 8 3.592 8 8v344c0 4.408-3.584 8-8 8h-80V72c0-4.416-3.576-8-8-8s-8 3.584-8 8v304h-64c-4.424 0-8 3.584-8 8s3.576 8 8 8h160c13.232 0 24-10.768 24-24V24c0-13.232-10.768-24-24-24z"/><path d="M311.078 40c-4.424 0-8 3.584-8 8v64c0 4.416 3.576 8 8 8s8-3.584 8-8V48c0-4.416-3.576-8-8-8zM311.078 144c-4.424 0-8 3.584-8 8v24c0 4.416 3.576 8 8 8s8-3.584 8-8v-24c0-4.416-3.576-8-8-8z"/><circle cx="335.078" cy="224" r="8"/><circle cx="335.078" cy="256" r="8"/><circle cx="335.078" cy="288" r="8"/><circle cx="335.078" cy="320" r="8"/><path d="M80.51 48H63.078V32c0-4.416-3.576-8-8-8s-8 3.584-8 8v16h-16c-4.424 0-8 3.584-8 8s3.576 8 8 8h16v16c0 4.416 3.576 8 8 8s8-3.584 8-8V64H80.51c4.424 0 8-3.584 8-8s-3.576-8-8-8zM294.886 202.424l-141.12-49.96a8.056 8.056 0 0 0-5.344 0L7.318 202.416a8.008 8.008 0 0 0-5.32 7.808c.088 2.728 2.432 67.52 21.216 133.48 25.6 89.864 69.816 137.368 127.888 137.368 58.744 0 103.168-47.504 128.496-137.384 18.584-65.976 20.536-130.784 20.616-133.504a8.006 8.006 0 0 0-5.328-7.76zM151.102 465.072c-112.6 0-130.504-211.496-132.816-249.56l132.816-47.024 132.856 47.032c-2.064 37.96-18.736 249.552-132.856 249.552z"/><path d="M262.894 226.816l-108.912-42.088a7.971 7.971 0 0 0-5.768 0L39.31 226.816a8.01 8.01 0 0 0-5.112 7.72c.288 8.896 8.248 217.92 116.904 217.92 109.928 0 116.68-209.072 116.912-217.968a7.994 7.994 0 0 0-5.12-7.672zm-111.792 209.64c-84.376 0-98.624-164.064-100.616-196.808l100.616-38.88 100.664 38.896c-1.8 32.656-15.128 196.792-100.664 196.792z"/><path d="M150.638 256.648c-34.016 0-61.688 27.672-61.688 61.68s27.672 61.68 61.688 61.68c34.008 0 61.68-27.672 61.68-61.68s-27.672-61.68-61.68-61.68zm0 107.352c-25.192 0-45.688-20.496-45.688-45.68s20.496-45.68 45.688-45.68c25.184 0 45.68 20.496 45.68 45.68S175.822 364 150.638 364z"/><path d="M178.39 299.264c-3.336-2.864-8.384-2.544-11.28.808l-19.744 22.968-7.832-8.976c-2.904-3.336-7.976-3.68-11.288-.76-3.328 2.904-3.664 8.152-.76 11.48l13.904 16.096c1.512 1.736 3.72 3.12 6.024 3.12h.032c2.328 0 4.52-1.408 6.04-3.168l25.76-30.192c2.872-3.352 2.496-8.496-.856-11.376z"/><circle cx="150.67" cy="230.824" r="7.592"/><circle cx="150.67" cy="406.824" r="7.592"/></svg>