<svg height="512pt" viewBox="0 -32 512 512" width="512pt" xmlns="http://www.w3.org/2000/svg"><path d="M99.32 433.047H17.5a2.502 2.502 0 0 1-2.5-2.5V78.567h178.309a7.5 7.5 0 1 0 0-15H160.89V15h215.918c4.14 0 7.5-3.36 7.5-7.5s-3.36-7.5-7.5-7.5H17.5C7.852 0 0 7.852 0 17.5v413.047c0 9.648 7.852 17.5 17.5 17.5h81.82c4.14 0 7.5-3.36 7.5-7.5s-3.36-7.5-7.5-7.5zM17.5 15h128.39v48.57H15V17.5c0-1.379 1.121-2.5 2.5-2.5zm0 0"/><path d="M494.5 0h-85.031a7.5 7.5 0 1 0 0 15H494.5c1.379 0 2.5 1.121 2.5 2.5v46.07H229.816a7.5 7.5 0 1 0 0 15H497v351.977c0 1.379-1.121 2.5-2.5 2.5H131.98c-4.14 0-7.5 3.36-7.5 7.5s3.36 7.5 7.5 7.5H494.5c9.648 0 17.5-7.852 17.5-17.5V17.5C512 7.852 504.148 0 494.5 0zm0 0M53.832 46.707h.145a7.499 7.499 0 0 0 7.496-7.465 7.497 7.497 0 0 0-7.465-7.535H53.867a7.5 7.5 0 0 0-.035 15zm0 0M81.383 46.785h.101c4.145 0 7.5-3.355 7.5-7.5a7.5 7.5 0 0 0-7.5-7.5h-.101a7.5 7.5 0 0 0-7.5 7.5c0 4.145 3.355 7.5 7.5 7.5zm0 0M108.86 46.867h.14a7.5 7.5 0 1 0 .035-15h-.14a7.5 7.5 0 0 0-.036 15zm0 0"/><path d="M349.516 387.2l-8.153 8.152a7.497 7.497 0 0 0 5.305 12.8c1.918 0 3.84-.73 5.3-2.195l8.153-8.152a7.497 7.497 0 0 0 0-10.606 7.497 7.497 0 0 0-10.605 0zm0 0M462.71 370.746c0-4.14-3.358-7.5-7.5-7.5H89.446V116.992c0-4.14-3.36-7.5-7.5-7.5-4.14 0-7.5 3.36-7.5 7.5v45.106h-17.61a7.5 7.5 0 1 0 0 15h17.61v39.086h-17.61c-4.14 0-7.5 3.359-7.5 7.5s3.36 7.5 7.5 7.5h17.61v39.09h-17.61a7.5 7.5 0 1 0 0 15h17.61v39.085h-17.61a7.5 7.5 0 1 0 0 15h17.61v31.387c0 4.145 3.356 7.5 7.5 7.5h373.262a7.5 7.5 0 0 0 7.504-7.5zm0 0"/><path d="M420.25 188.418h-85.164a7.507 7.507 0 0 0-7.387 6.195l-15.234 86.344-43.754-52.086a7.47 7.47 0 0 0-5.77-2.676 7.501 7.501 0 0 0-5.75 2.715l-16.363 19.75-23.152-34.398a7.497 7.497 0 0 0-12.879.738l-46.313 89.434-28.332-11.575a7.498 7.498 0 0 0-9.156 2.91l-18.09 28.333a7.495 7.495 0 0 0 2.285 10.355 7.499 7.499 0 0 0 10.36-2.285l14.722-23.059 28.883 11.801a7.507 7.507 0 0 0 9.5-3.496l43.645-84.285 21.683 32.222a7.504 7.504 0 0 0 5.852 3.305 7.483 7.483 0 0 0 6.144-2.707l17.028-20.55 48.308 57.507a7.5 7.5 0 0 0 13.13-3.52l16.937-95.972h78.87a7.5 7.5 0 0 0-.004-15zm0 0M104.379 387.2l-8.149 8.152a7.497 7.497 0 0 0 0 10.605 7.47 7.47 0 0 0 5.301 2.195c1.922 0 3.84-.73 5.305-2.195l8.148-8.152a7.497 7.497 0 0 0 0-10.606 7.497 7.497 0 0 0-10.605 0zm0 0M139.398 387.2l-8.148 8.152a7.497 7.497 0 0 0 0 10.605 7.47 7.47 0 0 0 5.3 2.195c1.923 0 3.84-.73 5.305-2.195l8.149-8.152a7.497 7.497 0 0 0 0-10.606 7.497 7.497 0 0 0-10.606 0zm0 0M174.418 387.2l-8.148 8.152a7.497 7.497 0 0 0 0 10.605 7.464 7.464 0 0 0 5.3 2.195 7.48 7.48 0 0 0 5.305-2.195l8.148-8.152a7.497 7.497 0 0 0 0-10.606 7.497 7.497 0 0 0-10.605 0zm0 0M209.438 387.2l-8.153 8.152c-2.926 2.925-2.926 7.675 0 10.605a7.48 7.48 0 0 0 5.305 2.195 7.48 7.48 0 0 0 5.305-2.195l8.148-8.152a7.497 7.497 0 0 0 0-10.606 7.497 7.497 0 0 0-10.606 0zm0 0M244.457 387.2l-8.152 8.152c-2.926 2.925-2.926 7.675 0 10.605 1.465 1.465 3.386 2.195 5.304 2.195s3.84-.73 5.301-2.195l8.153-8.152a7.497 7.497 0 0 0 0-10.606 7.497 7.497 0 0 0-10.606 0zm0 0M279.477 387.2l-8.153 8.152c-2.926 2.925-2.926 7.675 0 10.605a7.48 7.48 0 0 0 5.305 2.195 7.48 7.48 0 0 0 5.305-2.195l8.148-8.152a7.497 7.497 0 0 0 0-10.606 7.497 7.497 0 0 0-10.605 0zm0 0M314.496 387.2l-8.152 8.152a7.497 7.497 0 0 0 5.304 12.8c1.918 0 3.84-.73 5.301-2.195l8.153-8.152a7.497 7.497 0 0 0 0-10.606 7.497 7.497 0 0 0-10.606 0zm0 0M419.117 387.2l-8.148 8.152a7.497 7.497 0 0 0 0 10.605 7.47 7.47 0 0 0 5.3 2.195c1.922 0 3.84-.73 5.305-2.195l8.149-8.152a7.497 7.497 0 0 0 0-10.606 7.497 7.497 0 0 0-10.606 0zm0 0M384.098 387.2l-8.149 8.152a7.497 7.497 0 0 0 5.305 12.8 7.47 7.47 0 0 0 5.3-2.195l8.15-8.152a7.497 7.497 0 0 0 0-10.606 7.497 7.497 0 0 0-10.606 0zm0 0M56.883 158.496a7.5 7.5 0 1 0 0-15h-.094c-4.14 0-7.453 3.36-7.453 7.5 0 4.145 3.402 7.5 7.547 7.5zm0 0M56.883 212.586a7.5 7.5 0 0 0 .039-15h-.133c-4.121 0-7.43 3.332-7.453 7.46-.023 4.142 3.363 7.517 7.504 7.54zm0 0M56.883 266.672a7.5 7.5 0 1 0 0-15h-.094c-4.14 0-7.453 3.36-7.453 7.5 0 4.144 3.402 7.5 7.547 7.5zm0 0M56.883 320.762a7.5 7.5 0 0 0 .039-15h-.09a7.488 7.488 0 0 0-7.496 7.46c-.02 4.141 3.363 7.516 7.508 7.54zm0 0"/><path d="M462.71 253.871c0-9.648-7.85-17.5-17.5-17.5h-67.394c-9.648 0-17.5 7.852-17.5 17.5v67.39c0 9.65 7.852 17.5 17.5 17.5h67.395c9.648 0 17.5-7.85 17.5-17.5zm-84.894-2.5h67.395c1.375 0 2.5 1.121 2.5 2.5v8.649h-72.395v-8.649c0-1.379 1.122-2.5 2.5-2.5zm67.395 72.39h-67.395a2.502 2.502 0 0 1-2.5-2.5V277.52h72.395v43.742c0 1.379-1.125 2.5-2.5 2.5zm0 0M186.191 200.512c9.04 0 16.399-7.356 16.399-16.399v-59.965c0-9.043-7.36-16.398-16.399-16.398h-59.968c-9.04 0-16.399 7.355-16.399 16.398v59.965c0 9.043 7.36 16.399 16.399 16.399zm-59.968-77.762h59.968c.77 0 1.399.629 1.399 1.398v6.872h-62.766v-6.872c0-.77.63-1.398 1.399-1.398zm-1.399 61.363V146.02h62.766v38.093a1.4 1.4 0 0 1-1.399 1.399h-59.968a1.4 1.4 0 0 1-1.399-1.399zm0 0M245.684 120.793h-17.868c-4.14 0-7.5 3.36-7.5 7.5s3.36 7.5 7.5 7.5h17.868a7.5 7.5 0 1 0 0-15zm0 0M280.703 145.496h-52.887a7.5 7.5 0 1 0 0 15h52.887c4.145 0 7.5-3.355 7.5-7.5a7.5 7.5 0 0 0-7.5-7.5zm0 0M280.703 179.098a7.5 7.5 0 0 0 7.5-7.5c0-4.145-3.355-7.5-7.5-7.5h-52.887a7.5 7.5 0 1 0 0 15zm0 0"/></svg>