<svg height="512pt" viewBox="0 -40 512 511" width="512pt" xmlns="http://www.w3.org/2000/svg"><path d="M47.148 144.293h-15.09V96.676h39.606v15.09H47.148zm0 0M456.836 376.719h15.09v16.031h-15.09zm0 0M424.777 376.719h15.09v16.031h-15.09zm0 0"/><path d="M159.824.5v15.09H496.91v49.027H15.09V15.59H135.78V.5H0v431.852h360.191v-15.09H15.09V79.707h481.82v337.555H384.234v15.09H512V.5zm0 0"/><path d="M31.59 32.559h16.027v15.09H31.59zm0 0M63.648 32.559h16.028v15.09H63.648zm0 0M95.707 32.559H480.41v15.09H95.707zm0 0M112.207 288.559c0 13.699 6.602 39.605 31.586 39.605h64.117c24.988 0 31.59-25.906 31.59-39.605 0-25.91-15.57-48.239-37.84-58.16 8.438-7.266 13.797-18.016 13.797-30 0-21.84-17.766-39.606-39.605-39.606-21.836 0-39.602 17.766-39.602 39.605 0 11.98 5.36 22.735 13.797 30-22.27 9.922-37.84 32.25-37.84 58.16zM175.852 240c4.238 0 8.351.55 12.27 1.574l-12.27 12.27-12.266-12.27A48.468 48.468 0 0 1 175.852 240zm-24.512-39.602c0-13.52 10.996-24.515 24.512-24.515 13.52 0 24.515 10.996 24.515 24.515 0 13.516-10.996 24.512-24.515 24.512-13.516 0-24.512-10.996-24.512-24.512zm-2.465 47.809l26.977 26.977 26.976-26.977c13.004 8.723 21.582 23.55 21.582 40.352 0 .066-.07 6.828-2.527 13.379-3.742 9.98-9.766 11.132-13.973 11.132h-64.117c-4.148 0-10.102-1.12-13.86-10.836-2.566-6.636-2.636-13.629-2.636-13.675 0-16.801 8.578-31.63 21.578-40.352zm0 0"/><path d="M274.133 316.922c14.047-20.137 21.469-43.8 21.469-68.438 0-66.03-53.72-119.75-119.75-119.75s-119.75 53.72-119.75 119.75 53.722 119.754 119.75 119.754c31.53 0 61.293-12.152 83.808-34.215l-10.562-10.777c-19.676 19.281-45.688 29.899-73.246 29.899-57.707 0-104.66-46.95-104.66-104.66 0-57.708 46.953-104.66 104.66-104.66 57.71 0 104.664 46.952 104.664 104.66 0 21.53-6.489 42.21-18.758 59.804zm0 0M304.09 321.086h168.305v15.09H304.09zm0 0M320.117 281.016h152.278v15.09H320.117zm0 0M320.117 240.941h152.278v15.09H320.117zm0 0M320.117 200.867h152.278v15.09H320.117zm0 0M368.207 160.793h104.188v15.09H368.207zm0 0M440.336 128.734h32.059v15.09h-32.06zm0 0"/></svg>