<svg xmlns="http://www.w3.org/2000/svg" height="511pt" viewBox="-3 0 511 511.999" width="511pt"><path d="M500.18 426.133L376.492 307.617a9.46 9.46 0 0 0-11.531-1.37l-14.645-18.2c-2.875-3.567-7.84-4.465-11.738-2.371l-4.355-5.274-30.34-85.101c-1.824-6.223-4.945-12.043-9.082-17.063l68.707-72.191.32 8.348a30.813 30.813 0 0 0 30.879 29.738c.398 0 .797-.008 1.2-.024 8.253-.316 15.89-3.828 21.503-9.882 5.61-6.063 8.527-13.942 8.211-22.196l-2.941-76.984c1.195-9.707-2.27-19.45-9.352-26.192a30.632 30.632 0 0 0-2.754-2.312 30.935 30.935 0 0 0-20.18-6.52l-82.289 3.149c-8.253.312-15.89 3.824-21.503 9.883-5.614 6.058-8.532 13.941-8.215 22.195.316 8.25 3.828 15.89 9.886 21.504 6.059 5.617 13.957 8.535 22.196 8.21l7.023-.269-22.125 23.246a7.386 7.386 0 0 0 10.7 10.184l34.656-36.414a7.38 7.38 0 0 0 1.382-8.133 7.398 7.398 0 0 0-7.015-4.34l-25.195.965c-4.31.18-8.418-1.351-11.582-4.285a16.053 16.053 0 0 1-5.165-11.234 16.051 16.051 0 0 1 4.29-11.59 16.053 16.053 0 0 1 11.23-5.164l82.293-3.149a16.2 16.2 0 0 1 10.566 3.442c.043.03.086.066.133.101.59.442 1.074.844 1.48 1.23 3.786 3.606 5.59 8.864 4.825 14.067-.067.45-.09.902-.074 1.356l2.968 77.617a16.06 16.06 0 0 1-4.289 11.594 16.032 16.032 0 0 1-11.226 5.16c-8.996.355-16.418-6.598-16.758-15.52L377.598 88a7.378 7.378 0 0 0-4.77-6.625 7.38 7.38 0 0 0-7.96 1.816l-80.255 84.32-16-16.437a38.12 38.12 0 0 0-7.343-5.883l20.953-22.015a7.386 7.386 0 0 0-10.7-10.184l-25.644 26.945a36.67 36.67 0 0 0-3.598-.214c-7.578-.051-14.808 2.172-20.867 6.379l-4.582-4.649c-5.523-5.601-12.898-8.715-20.766-8.766-.066-.003-.132-.003-.203-.003-7.789 0-15.125 3.011-20.675 8.488-6.473 6.39-9.356 15.062-8.637 23.488-.317-.012-.637-.027-.953-.027-.07-.004-.137-.004-.203-.004-7.793 0-15.13 3.012-20.68 8.488-6.168 6.09-9.074 14.25-8.711 22.297a29.098 29.098 0 0 0-1.938-.086c-7.875-.031-15.28 2.961-20.882 8.488-8.2 8.094-10.633 19.856-7.282 30.133-6.082.883-11.734 3.684-16.199 8.09-11.422 11.274-11.547 29.738-.277 41.164l10.23 10.371-90.648 95.242c-11.754 12.348-11.27 31.957 1.078 43.715a30.79 30.79 0 0 0 21.316 8.52c8.426 0 16.594-3.5 22.403-9.602l93.355-98.09 17.496 17.336c8.598 8.633 18.156 11.375 28.012 13.633.441.102.894.164 1.344.18l45.71 1.898a9.31 9.31 0 0 0-.718 2.723 9.317 9.317 0 0 0 2.016 6.887l14.707 18.27a9.456 9.456 0 0 0 .707 9.003c.093.145.191.285.296.422l77.09 102.64A14.216 14.216 0 0 0 345.133 512h.012l145.433-.191c7.785-.012 14.117-6.352 14.117-14.137v-60.957c0-3.973-1.644-7.828-4.515-10.582zM185.566 151.688c2.79-2.754 6.5-4.211 10.403-4.231a14.585 14.585 0 0 1 10.347 4.367l4.204 4.266-20.91 20.578-4.184-4.242c-5.68-5.754-5.617-15.059.14-20.738zm-30.472 31.945a14.573 14.573 0 0 1 10.304-4.23h.102a14.576 14.576 0 0 1 10.344 4.367l3.246 3.292c-4.41 4.735-6.856 10.895-6.903 17.47-.054 7.155 2.711 13.929 7.79 19.077l4.746 4.817a26.935 26.935 0 0 0 8.996 6.031c-.914.172-1.852.258-2.809.25a14.544 14.544 0 0 1-9.39-3.492 33.29 33.29 0 0 0-1.079-1.153l-25.613-25.964c-.285-.293-.578-.57-.875-.848-4.644-5.785-4.254-14.293 1.14-19.617zm8.707 96.234c6.156-.902 11.847-3.722 16.36-8.176 6.167-6.086 9.073-14.25 8.71-22.293.645.043 1.29.079 1.938.082h.207c7.789 0 15.125-3.007 20.675-8.488a29.014 29.014 0 0 0 5.957-8.469 25.605 25.605 0 0 0 4.395-3.468l13.05-12.86a8.434 8.434 0 0 1 5.485-2.418l-75.527 79.356a29.331 29.331 0 0 0-1.25-13.266zM43.105 421.266c-3.078 3.234-7.234 5.015-11.703 5.015-4.16 0-8.113-1.582-11.129-4.453-6.449-6.14-6.703-16.379-.566-22.832l90.324-94.902 5.465 5.543c4.41 4.468 10.012 7.336 16.098 8.3l5.07 5.024zm103.196-121.868a14.249 14.249 0 0 1-10.07 4.137c-.036 0-.067 0-.102-.004-.164 0-.324-.02-.488-.027-.067-.004-.133-.004-.203-.008a14.235 14.235 0 0 1-9.422-4.234l-26.07-26.434c-5.551-5.625-5.493-14.723.136-20.277a14.245 14.245 0 0 1 10.07-4.133h.098c2.988.02 5.824.957 8.207 2.656l20.059 20.336a30.091 30.091 0 0 0 2.695 2.41l5.226 5.301c5.551 5.629 5.493 14.727-.136 20.277zm-15.414-57.082a29.816 29.816 0 0 0-2.684-2.398l-4.777-4.844c-5.68-5.758-5.617-15.062.136-20.746a14.586 14.586 0 0 1 10.305-4.226h.102a14.57 14.57 0 0 1 9.39 3.488c.348.394.707.781 1.078 1.156l25.61 25.965c.285.293.578.57.875.848 4.648 5.785 4.254 14.293-1.14 19.617-2.79 2.754-6.466 4.21-10.403 4.23-3.07-.02-5.98-.988-8.422-2.742zm120.832 113.055l-.715-.855a7.377 7.377 0 0 0-5.363-2.649l-50.328-2.09c-9.258-2.156-14.985-4.28-20.227-9.543l-17.738-17.578 89.12-93.636c1.497 7.82 4.598 15.18 9.298 21.996a7.384 7.384 0 0 0 10.273 1.89 7.384 7.384 0 0 0 1.89-10.27c-6.234-9.05-8.663-18.976-7.429-30.347a7.39 7.39 0 0 0-2.05-5.95c-4.552-4.675-10.618-7.284-17.083-7.35-6.304-.06-12.203 2.308-16.64 6.687l-13.051 12.86a10.85 10.85 0 0 1-2.895 2.038c-.066.031-.136.055-.199.086-4.305 1.98-9.691 1.09-13.34-2.61l-4.75-4.812c-2.304-2.336-3.558-5.386-3.535-8.597.023-3.012 1.191-5.809 3.29-7.875l4.456-4.383.004-.004.004-.004.008-.004v-.004c.004 0 .004 0 .004-.004l31.433-30.933c0-.004.004-.004.004-.004s0-.004.004-.004l.953-.942c3.934-3.867 9.168-5.988 14.77-5.988h.238a22.275 22.275 0 0 1 4.465.5c4.3.926 8.258 3.117 11.441 6.387l23.54 24.176a33.512 33.512 0 0 1 8.187 14.062c.043.145.09.29.14.434l30.848 86.531c.008.027.024.05.035.078.121.328.262.652.43.965.027.043.055.086.078.129a7.736 7.736 0 0 0 .645.95c.027.034.046.07.074.1l4.96 6.005zm238.207 141.664l-144.48.192-73.727-98.157 12.414-9.863a7.384 7.384 0 0 0 1.191-10.375 7.389 7.389 0 0 0-10.379-1.191l-8.328 6.617-10.703-13.297 86.277-69.445 11.149 13.847-51.336 40.785a7.383 7.383 0 0 0-1.188 10.375 7.38 7.38 0 0 0 10.375 1.188s57.895-46.055 58.211-46.43l120.524 115.434zm0 0"/></svg>