<svg height="80" viewBox="0 0 60.247 60" width="80" xmlns="http://www.w3.org/2000/svg"><path d="M46.602 41.45c-6.5-.919-12.723 2.253-15.793 7.952a6.153 6.153 0 0 0-.957-.21 5.903 5.903 0 0 0-3.649.644c-.394-1-.926-1.95-1.562-2.813L34 34.711v2.66a1 1 0 0 0 1 1h4a1 1 0 0 0 1-1V26.816l12.102-15.93.171.169c.02.027.727.898.727 3.316 0 2.422-.71 3.293-.707 3.293a1 1 0 0 0 1.262 1.54c.132-.09 3.297-2.231 4.394-5.517.781-2.347.465-4.164.192-5.09.191-.163.382-.335.566-.519 2.375-2.375 1.309-6.765 1.262-6.95a.983.983 0 0 0-.727-.726c-.187-.047-4.574-1.109-6.949 1.262a8.828 8.828 0 0 0-.52.566c-.925-.277-2.742-.59-5.09.192-3.288 1.098-5.425 4.262-5.515 4.394-.277.414-.191.961.184 1.293s.953.32 1.332-.007c.004-.008.87-.73 3.316-.73 2.414 0 3.29.706 3.293.706l.191.192-15.93 12.101H23c-.555 0-1 .445-1 1v4a1 1 0 0 0 1 1h2.66L12.336 36.496a11.473 11.473 0 0 0-2.781-3.512 6 6 0 0 0 3.008-4.418 5.962 5.962 0 0 0-1.153-4.437A5.932 5.932 0 0 0 7.46 21.8a6.072 6.072 0 0 0-2.429.152 5.423 5.423 0 0 0-.586-1.476A8.531 8.531 0 0 0 8.5 14.37a8.452 8.452 0 0 0-3.129-7.844A4.003 4.003 0 0 0 2 .371c-.48 0-.938.082-1.36.246a.999.999 0 0 0-.64.934v57.82a1 1 0 0 0 1 1h57.7c.487 0 .905-.351.987-.836l.09-.555c0-.007 0-.015.004-.02a15.409 15.409 0 0 0-2.968-11.495 15.383 15.383 0 0 0-10.211-6.016zm5.941-36.927c.156-.234.324-.464.504-.691l3.492 3.492c-.23.18-.46.352-.695.508l-2.645 1.32-.492-.488-1-1-.488-.492zm3.508 8.532c-.246.734-.633 1.41-1.067 2 .008-.22.016-.446.016-.684 0-1.633-.273-2.75-.57-3.492.539-.242 1.226-.578 1.953-1.016.11.739.12 1.836-.332 3.192zm2.097-10.832c.141.96.196 2.453-.296 3.586l-3.29-3.29c1.133-.492 2.626-.44 3.586-.296zM45.316 5.387c.59-.434 1.262-.82 2-1.067 1.356-.453 2.454-.441 3.192-.332a17.76 17.76 0 0 0-1.016 1.953c-.742-.296-1.86-.57-3.492-.57-.238 0-.469.004-.684.016zm4.618 5.05L40 23.512v-2.14c0-.556-.445-1-1-1h-2.14zm-20.7 15.731a1 1 0 0 0-.605-1.797H24v-2h14v14h-2v-4.629a1.001 1.001 0 0 0-1.797-.605L23.297 45.484a11.887 11.887 0 0 0-.707-.625c-.016-.011-.031-.02-.043-.03a11.92 11.92 0 0 0-.77-.575c-.09-.063-.187-.117-.277-.176a11.192 11.192 0 0 0-.586-.36c-.11-.062-.227-.12-.34-.179a10.405 10.405 0 0 0-1.527-.668c-.121-.043-.242-.09-.367-.129-.22-.07-.438-.129-.66-.187-.11-.028-.215-.059-.325-.086-.332-.074-.672-.14-1.011-.188a11.558 11.558 0 0 0-1.598-.11c-.016 0-.027-.003-.043-.003-.48 0-.957.027-1.434.086.016-.36.012-.723-.007-1.082a9.577 9.577 0 0 0-.032-.348 11.46 11.46 0 0 0-.078-.726c-.02-.137-.043-.27-.066-.407-.043-.222-.09-.441-.145-.664-.031-.132-.066-.261-.101-.394-.02-.074-.035-.149-.059-.223zM2 2.371c1.102 0 2 .899 2 2 0 .613-.273 1.18-.746 1.55a1 1 0 0 0 .113 1.652 6.468 6.468 0 0 1 3.153 6.52 6.516 6.516 0 0 1-3.97 5.102 1.004 1.004 0 0 0-.55.559zm55.84 56H2V20.488c.047.121.121.235.215.332.644.66.996 1.578.965 2.52a1.001 1.001 0 1 0 1.484.906 4.065 4.065 0 0 1 2.52-.465c2.175.305 3.699 2.328 3.398 4.512a4.011 4.011 0 0 1-3.336 3.41.998.998 0 1 0-.336 1.852 9.447 9.447 0 0 1 4.098 4.851 9.433 9.433 0 0 1 .523 4.657l-.039.257a.998.998 0 0 0 1.219 1.121c.91-.214 1.84-.304 2.77-.261a9.333 9.333 0 0 1 1.828.25c.41.097.804.226 1.195.37a9.891 9.891 0 0 1 4.113 2.876v.004c.98 1.148 1.7 2.53 2.086 3.996.09.336.348.601.68.703.336.101.695.02.953-.215a3.95 3.95 0 0 1 3.234-.992c.446.062.875.195 1.274.394a.997.997 0 0 0 1.352-.477c2.523-5.421 8.199-8.491 14.124-7.66 3.567.5 6.727 2.36 8.895 5.239a13.405 13.405 0 0 1 2.625 9.703zm0 0"/><path d="M19 9.371h2v2a1 1 0 0 0 1 1h4a1 1 0 0 0 1-1v-2h2a1 1 0 0 0 1-1v-4c0-.555-.445-1-1-1h-2v-2c0-.555-.445-1-1-1h-4c-.555 0-1 .445-1 1v2h-2c-.555 0-1 .445-1 1v4a1 1 0 0 0 1 1zm1-4h2a1 1 0 0 0 1-1v-2h2v2a1 1 0 0 0 1 1h2v2h-2c-.555 0-1 .445-1 1v2h-2v-2c0-.555-.445-1-1-1h-2zm0 0M59 27.371h-2v-2c0-.555-.445-1-1-1h-4c-.555 0-1 .445-1 1v2h-2c-.555 0-1 .445-1 1v4a1 1 0 0 0 1 1h2v2a1 1 0 0 0 1 1h4a1 1 0 0 0 1-1v-2h2a1 1 0 0 0 1-1v-4c0-.555-.445-1-1-1zm-1 4h-2c-.555 0-1 .445-1 1v2h-2v-2c0-.555-.445-1-1-1h-2v-2h2a1 1 0 0 0 1-1v-2h2v2a1 1 0 0 0 1 1h2zm0 0"/></svg>