<svg height="512" viewBox="0 0 64 64" width="512" xmlns="http://www.w3.org/2000/svg"><path d="M27 18c.551 0 1 .448 1 1h2c0-1.654-1.346-3-3-3s-3 1.346-3 3h2c0-.552.449-1 1-1zM35 18c.551 0 1 .448 1 1h2c0-1.654-1.346-3-3-3s-3 1.346-3 3h2c0-.552.449-1 1-1zM36 22v-1H26v1c0 2.757 2.243 5 5 5s5-2.243 5-5zm-7.829 1h5.657c-.413 1.164-1.525 2-2.829 2s-2.415-.836-2.828-2z"/><path d="M58.21 8a4.776 4.776 0 0 0-4.725 4.003l-.357 2.141A2.995 2.995 0 0 0 51 17v2.343c0 1.336.52 2.592 1.464 3.536l.536.535v5.349a4.213 4.213 0 0 1-2.341 3.789 4.245 4.245 0 0 1-1.895.448H36.82l-.659-3.292A11.06 11.06 0 0 0 41.236 24H42c2.206 0 4-1.794 4-4s-1.794-4-4-4v-2.502A6.51 6.51 0 0 0 46 7.5C46 3.916 43.084 1 39.5 1H27.685C21.242 1 16 6.241 16 12.685c0 .955.117 1.909.349 2.835l.509 2.035A3.96 3.96 0 0 0 16 20c0 2.206 1.794 4 4 4h.764a11.055 11.055 0 0 0 5.075 5.708l-.689 3.442-6.148 1.229a9.974 9.974 0 0 0-5.821 3.542A10.002 10.002 0 0 0 11 44.142V57c0 3.309 2.691 6 6 6h28c1.103 0 2-.897 2-2V43h2.185A13.814 13.814 0 0 0 63 29.185V12.79A4.794 4.794 0 0 0 58.21 8zM53 17c0-.552.449-1 1-1h2a1.001 1.001 0 0 1 0 2h-1v2h1c1.654 0 3-1.346 3-3s-1.346-3-3-3h-.82l.278-1.669A2.782 2.782 0 0 1 58.21 10 2.794 2.794 0 0 1 61 12.79V22h-6.586l-.535-.535A2.98 2.98 0 0 1 53 19.343zM37.234 35l-1.653 2.755-2.337-.935L36.277 35zM44 20c0 1.103-.897 2-2 2h-.191c.12-.65.191-1.316.191-2v-2c1.103 0 2 .897 2 2zm-24 2c-1.103 0-2-.897-2-2s.897-2 2-2v2c0 .684.071 1.35.191 2zm0-7.969V16c-.495 0-.964.102-1.402.267l-.309-1.233A9.68 9.68 0 0 1 18 12.685C18 7.345 22.344 3 27.685 3H39.5C41.981 3 44 5.019 44 7.5S41.981 12 39.5 12h-1.013A2.49 2.49 0 0 1 36 9.513c0-1.072.684-2.02 1.7-2.358l.616-.205-.632-1.898-.616.206A4.477 4.477 0 0 0 34 9.513c0 .129.027.251.038.377a19.712 19.712 0 0 1-5.379-1.303l-.388-.156A6.014 6.014 0 0 0 26.031 8 6.038 6.038 0 0 0 20 14.031zM22 20v-5.969a4.036 4.036 0 0 1 5.527-3.744l.388.156a21.728 21.728 0 0 0 6.812 1.502A4.48 4.48 0 0 0 38.487 14H39.5c.169 0 .334-.013.5-.025V20c0 4.963-4.038 9-9 9s-9-4.037-9-9zm9 11c1.142 0 2.244-.176 3.28-.5l.601 3.005L31 35.834l-3.881-2.329.601-3.005c1.036.324 2.138.5 3.28.5zm-5.183 4.056l2.94 1.764-2.35.94-1.559-2.51zM23 61v-2h22v2zm22-4H23V43h22zm13.077-20.034A11.82 11.82 0 0 1 49.185 41H23c-1.103 0-2 .897-2 2v12h-4v2h4v4h-4c-2.206 0-4-1.794-4-4V44.142c0-1.8.619-3.565 1.743-4.97a7.963 7.963 0 0 1 4.652-2.831l3.358-.672 2.84 4.571 5.318-2.127.089.053.089-.053 5.331 2.132L39.566 35h9.198c.962 0 1.927-.228 2.789-.658A6.202 6.202 0 0 0 55 28.764V24h6v5.185c0 2.863-1.038 5.627-2.923 7.781z"/><path d="M34 53c1.654 0 3-1.346 3-3s-1.346-3-3-3-3 1.346-3 3 1.346 3 3 3zm0-4a1.001 1.001 0 1 1-1 1c0-.552.449-1 1-1zM11.852 31.839A6.998 6.998 0 0 0 15 26c0-3.859-3.14-7-7-7s-7 3.141-7 7a6.998 6.998 0 0 0 3.148 5.839l.711 3.554A2.005 2.005 0 0 0 6.82 37h2.36c.95 0 1.775-.676 1.961-1.607zM3 26c0-2.757 2.243-5 5-5s5 2.243 5 5a5.01 5.01 0 0 1-4 4.899v-2.083A2.996 2.996 0 0 0 11 26c0-1.654-1.346-3-3-3s-3 1.346-3 3c0 1.302.839 2.402 2 2.816v2.083A5.01 5.01 0 0 1 3 26zm4 0a1.001 1.001 0 1 1 1 1c-.551 0-1-.448-1-1zm-.18 9l-.44-2.197C6.901 32.927 7.442 33 8 33s1.099-.073 1.62-.197L9.18 35zM7 13h2v4H7zM2.107 14.372l1.848-.766 1.532 3.697-1.848.766zM10.524 17.303l1.533-3.696 1.848.766-1.533 3.696z"/></svg>