<svg height="512" width="512" xmlns="http://www.w3.org/2000/svg"><path d="M165.289 169.47l39.957 29.03-15.262 46.972c-2.31 7.108.104 14.54 6.151 18.934 3.024 2.197 6.489 3.295 9.955 3.295 3.465 0 6.931-1.099 9.954-3.295L256 235.375l39.957 29.031c6.047 4.393 13.861 4.393 19.908 0s8.461-11.825 6.152-18.934L306.754 198.5l39.957-29.03c6.046-4.394 8.461-11.825 6.151-18.934s-8.632-11.701-16.106-11.701h-49.389l-15.262-46.972c-2.31-7.108-8.631-11.702-16.105-11.702s-13.796 4.594-16.106 11.702l-15.262 46.972h-49.389c-7.474 0-13.796 4.593-16.106 11.701s.105 14.54 6.152 18.934zm8.114-14.298c.289-.888.908-1.337 1.84-1.337h54.838a7.501 7.501 0 0 0 7.133-5.183l16.946-52.154c.289-.887.908-1.337 1.841-1.337s1.551.45 1.84 1.337l16.946 52.154a7.501 7.501 0 0 0 7.133 5.183h54.838c.933 0 1.552.449 1.84 1.337.288.887.052 1.615-.703 2.163l-44.365 32.232a7.5 7.5 0 0 0-2.725 8.386l16.946 52.154c.288.887.052 1.615-.703 2.163-.754.548-1.52.548-2.275 0l-44.365-32.233c-1.314-.955-2.861-1.433-4.408-1.433s-3.094.478-4.408 1.433l-44.365 32.233c-.755.548-1.52.548-2.275 0-.754-.548-.991-1.276-.703-2.163l16.946-52.154a7.501 7.501 0 0 0-2.725-8.386l-44.365-32.232c-.754-.548-.99-1.276-.702-2.163z"/><path d="M453.69 210.616l-37.884-37.884V15.516C415.807 6.96 408.846 0 400.291 0H111.709c-8.556 0-15.516 6.96-15.516 15.516v157.216L58.31 210.616a7.497 7.497 0 0 0-2.197 5.303v272.548c0 12.976 10.557 23.532 23.532 23.532h352.71c12.976 0 23.532-10.556 23.532-23.532V215.919c0-1.988-.79-3.897-2.197-5.303zm-12.803 275.778L314.703 360.209l126.184-126.184zM430.281 497H81.719l151.242-151.243c12.703-12.703 33.373-12.703 46.076 0zM111.709 15H400.29c.285 0 .516.231.516.516v192.387a7.5 7.5 0 0 0 15 0v-13.958l21.974 21.974-133.683 133.684-14.452-14.452c-18.552-18.552-48.737-18.552-67.289 0L71.113 486.394V234.026l108.126 108.125c1.464 1.465 3.384 2.197 5.303 2.197s3.839-.732 5.303-2.197a7.5 7.5 0 0 0 0-10.606l-78.652-78.651V15.516c0-.285.232-.516.516-.516zM96.193 193.945v43.948l-21.974-21.974z"/></svg>