<svg height="512" viewBox="0 0 64 64" width="512" xmlns="http://www.w3.org/2000/svg"><path d="M11 55h18a1 1 0 0 0 1-1v-4c0-3.401-2.44-6.241-5.66-6.868A6.002 6.002 0 0 0 25.65 41H29a1 1 0 0 0 1-1v-4a1 1 0 0 0-1-1h-1c0-3.007-1.67-5.63-4.129-6.996A4.004 4.004 0 0 0 20 23c-2.206 0-4 1.794-4 4 0 .34.045.677.13 1.004A8.002 8.002 0 0 0 12 35v.184A2.996 2.996 0 0 0 10 38c0 1.654 1.346 3 3 3h1.35a6.002 6.002 0 0 0 1.31 2.132C12.44 43.759 10 46.599 10 50v4a1 1 0 0 0 1 1zm9-10h3l-1.108 1.478-1.185-1.185a.997.997 0 0 0-1.414 0l-1.185 1.185L17 45zm0-2c-2.206 0-4-1.794-4-4v-2h3a4.997 4.997 0 0 0 4-2.003c.283.377.624.707 1 .991V39h-2v2h1.444c-.694 1.19-1.97 2-3.444 2zm8-4h-2v-2h2zM18 27c0-1.103.897-2 2-2s2 .897 2 2c0 .086-.022.17-.033.255C21.336 27.094 20.68 27 20 27s-1.336.094-1.967.255C18.022 27.17 18 27.087 18 27zm2 2a6.008 6.008 0 0 1 5.998 5.828A3.005 3.005 0 0 1 24 32a1 1 0 1 0-2 0c0 1.654-1.346 3-3 3h-5c0-3.309 2.691-6 6-6zm-7 10a1.001 1.001 0 0 1 0-2h1v2zm-1 11c0-1.993 1.18-3.703 2.871-4.506L17.2 48.6a.996.996 0 0 0 .729.397.987.987 0 0 0 .778-.291L20 47.414l1.293 1.293a.995.995 0 0 0 .778.291c.289-.021.555-.166.729-.397l2.329-3.106C26.82 46.297 28 48.007 28 50v3h-2v-4h-2v4h-8v-4h-2v4h-2z"/><path d="M38 37h-6v2h5v18H3V39h5v-2H2a1 1 0 0 0-1 1v20a1 1 0 0 0 1 1h15v2h-4v2h14v-2h-4v-2h15a1 1 0 0 0 1-1V38a1 1 0 0 0-1-1zM21 61h-2v-2h2zM62.882 13.528A1 1 0 0 0 62 13c-1.654 0-3-1.346-3-3V9c0-4.411-3.589-8-8-8s-8 3.589-8 8v1c0 1.654-1.346 3-3 3a1 1 0 0 0-.832 1.554 7.717 7.717 0 0 0 5.374 3.367A7.002 7.002 0 0 0 41 24v4a1 1 0 0 0 1 1h18a1 1 0 0 0 1-1v-4a7.002 7.002 0 0 0-3.542-6.079 7.71 7.71 0 0 0 5.374-3.367.998.998 0 0 0 .05-1.026zM51 19h3l-1.108 1.478-1.185-1.185a.997.997 0 0 0-1.414 0l-1.185 1.185L48 19zm4-6c0 2.206-1.794 4-4 4s-4-1.794-4-4v-2a4.997 4.997 0 0 0 4-2.003A4.997 4.997 0 0 0 55 11zm4 11v3h-2v-4h-2v4h-8v-4h-2v4h-2v-3c0-1.993 1.18-3.703 2.871-4.506L48.2 22.6a.996.996 0 0 0 .729.397.987.987 0 0 0 .778-.291L51 21.414l1.293 1.293a.995.995 0 0 0 .778.291c.289-.021.555-.166.729-.397l2.329-3.106C57.82 20.297 59 22.007 59 24zm-2.605-8h-.206A5.967 5.967 0 0 0 57 13v-3a1 1 0 0 0-1-1h-1c-1.654 0-3-1.346-3-3a1 1 0 1 0-2 0c0 1.654-1.346 3-3 3h-1a1 1 0 0 0-1 1v3c0 1.093.299 2.116.812 3h-.206a5.726 5.726 0 0 1-3.721-1.369A5.007 5.007 0 0 0 45 10V9c0-3.309 2.691-6 6-6s6 2.691 6 6v1a5.007 5.007 0 0 0 3.115 4.631A5.724 5.724 0 0 1 56.395 16z"/><path d="M31 11h10V9H31c-6.617 0-12 5.383-12 12h2c0-5.514 4.486-10 10-10zM51 37c0 5.514-4.486 10-10 10v2c6.617 0 12-5.383 12-12v-6h-2z"/></svg>