<svg xmlns="http://www.w3.org/2000/svg" viewBox="0 0 480 480"><path d="M477.657 146.344l-24-24a8 8 0 0 0-11.312 0l-112 112-26.344 26.344V8a8 8 0 0 0-8-8h-288a8 8 0 0 0-8 8v464a8 8 0 0 0 8 8h288a8 8 0 0 0 8-8V331.312l61.656-61.656 112-112a8 8 0 0 0 0-11.312zM288.001 464h-272V16h272v260.688l-16 16V40a8 8 0 0 0-8-8h-224a8 8 0 0 0-8 8v384a8 8 0 0 0 8 8h224a8 8 0 0 0 8-8v-60.688l16-16V464zm-53.656-133.656a8.005 8.005 0 0 0-1.768 2.688l-16 40a8 8 0 0 0 10.4 10.4l29.024-11.616V416h-208V48h208v260.688l-21.656 21.656zm15.424 26.736l-11.408 4.56 4.56-11.408 6.848 6.848zm40.576-34.736l-26.344 26.344L251.313 336l18.344-18.344 32-32 34.344-34.344L348.689 264l-58.344 58.344zm69.656-69.656L347.313 240l12.688-12.688L372.689 240l-12.688 12.688zm24-24L371.313 216l76.688-76.688L460.689 152l-76.688 76.688zM360.001 448v-8h-16v8h-8v16h8v8h16v-8h8v-16zM336.434 21.626l11.313-11.313 11.314 11.313-11.314 11.314z"/><path d="M359.01 21.674l11.313-11.314 11.313 11.314-11.313 11.314z"/><path d="M359.016 44.257l11.314-11.314 11.314 11.314-11.314 11.314zM336.431 44.208l11.314-11.314 11.314 11.314-11.314 11.314zM464.001 320h-12.688l8.968-8.968-11.312-11.312-8.968 8.968V296h-16v12.688l-8.968-8.968-11.312 11.312 8.968 8.968h-12.688v16h12.688l-8.968 8.968 11.312 11.312 8.968-8.968V360h16v-12.688l8.968 8.968 11.312-11.312-8.968-8.968h12.688v-16zm-16 14.624L438.625 344h-13.248l-9.376-9.376v-13.248l9.376-9.376h13.248l9.376 9.376v13.248zM383.013 109.672l11.314-11.314 11.313 11.314-11.313 11.314zM124.145 140c17.771-8.916 24.949-30.55 16.033-48.321-8.916-17.771-30.55-24.949-48.321-16.033-17.771 8.916-24.949 30.55-16.033 48.321A36 36 0 0 0 91.857 140a35.905 35.905 0 0 0-19.856 32v12a8 8 0 0 0 8 8h56a8 8 0 0 0 8-8v-12a35.906 35.906 0 0 0-19.856-32zm-36.144-32c0-11.046 8.954-20 20-20s20 8.954 20 20-8.954 20-20 20-20-8.954-20-20zm40 68h-40v-4c0-11.046 8.954-20 20-20s20 8.954 20 20v4zM168.001 80h64v16h-64zM168.001 112h64v16h-64zM168.001 144h64v16h-64zM168.001 176h64v16h-64zM72.001 208h160v16h-160zM72.001 240h160v16h-160zM72.001 272h160v16h-160zM184.001 376a69.58 69.58 0 0 1-23.912-4.216c12.915-8.885 16.182-26.558 7.296-39.472-8.885-12.915-26.557-16.182-39.472-7.296-12.915 8.885-16.182 26.558-7.296 39.472a28.384 28.384 0 0 0 7.296 7.296A69.58 69.58 0 0 1 104.001 376a8 8 0 0 0 0 16 85.349 85.349 0 0 0 40-9.896 85.349 85.349 0 0 0 40 9.896h24v-16h-24zm-29.696-20.727a12.373 12.373 0 0 1-3.496 3.471l-6.808 4.64-6.872-4.688c-5.688-3.798-7.221-11.487-3.423-17.176 3.798-5.688 11.487-7.221 17.176-3.423 5.688 3.798 7.22 11.487 3.423 17.176z"/></svg>