<svg height="512pt" viewBox="-22 0 512 512.001" width="512pt" xmlns="http://www.w3.org/2000/svg"><path d="M464.91 208.453l-53.207-51.504V54.047c0-5.52-4.476-10-10-10H295.074l-34.183-33.09c-15.094-14.61-38.735-14.613-53.829 0l-34.183 33.09H66.25c-5.523 0-10 4.48-10 10v102.902L3.047 208.453A9.996 9.996 0 0 0 0 215.641v245.453C0 489.164 22.84 512 50.91 512h143.07c5.524 0 10-4.477 10-9.996 0-5.524-4.476-10-10-10H50.91c-4.3 0-8.394-.887-12.12-2.48l168.062-168.06c14.957-14.956 39.296-14.956 54.253 0l168.06 168.06a30.724 30.724 0 0 1-12.118 2.48H273.973c-5.524 0-10 4.476-10 10 0 5.52 4.476 9.996 10 9.996h143.074c28.07 0 50.906-22.836 50.906-50.906V215.637c0-2.707-1.098-5.297-3.043-7.184zM447.953 461.09a30.724 30.724 0 0 1-3.914 15.031L327.83 359.906l120.128-120.129V461.09zM443.7 215.754l-31.996 31.996v-62.969zM220.973 25.324a18.623 18.623 0 0 1 26.011 0l19.34 18.723h-64.691zM20 461.09V239.777l120.129 120.13L23.91 476.12A30.721 30.721 0 0 1 20 461.09zm36.25-213.344l-31.992-31.992L56.25 184.78zm136.457 59.578l-38.437 38.442-78.02-78.02v-203.7h315.453v203.7l-78.02 78.02-38.437-38.442c-22.758-22.754-59.781-22.754-82.539 0zm0 0"/><path d="M323.305 169.586V158.43h11.152c5.523 0 10-4.477 10-9.996 0-5.524-4.477-10-10-10h-11.152v-10.395c0-5.52-4.477-10-10-10-5.52 0-10 4.48-10 10v10.395H292.91c-5.52 0-9.996 4.476-9.996 10 0 5.52 4.477 9.996 9.996 9.996h10.395v11.156c0 5.52 4.48 10 10 10 5.523 0 10-4.48 10-10zm0 0M283.973 202.309c0-5.524-4.48-10-10-10h-5.41L243.3 126.984a10 10 0 0 0-9.324-6.394 10.01 10.01 0 0 0-9.329 6.394l-25.257 65.325h-5.41c-5.52 0-10 4.476-10 10 0 4.757 3.328 8.73 7.777 9.742l-7.102 18.37c-1.992 5.153.567 10.942 5.719 12.934 5.148 1.989 10.941-.57 12.934-5.718l9.793-25.328h41.75l9.796 25.328c1.532 3.965 5.317 6.394 9.329 6.394 1.199 0 2.418-.219 3.601-.676 5.152-1.992 7.711-7.78 5.723-12.933l-7.106-18.371c4.45-1.012 7.778-4.985 7.778-9.742zm-63.141-10l13.145-33.993 13.144 33.993zm0 0M233.977 491.996a10.08 10.08 0 0 0-7.07 2.93 10.114 10.114 0 0 0-2.93 7.07c0 2.629 1.07 5.211 2.93 7.078a10.072 10.072 0 0 0 7.07 2.922c2.628 0 5.21-1.062 7.066-2.922a10.078 10.078 0 0 0 2.934-7.078c0-2.629-1.07-5.2-2.934-7.07a10.064 10.064 0 0 0-7.066-2.93zm0 0"/></svg>