<svg height="640" viewBox="0 -16 480 480" width="640" xmlns="http://www.w3.org/2000/svg"><path d="M0 320c.027 22.082 17.918 39.973 40 40h148.617l-26.219 72H136v16h208v-16h-26.398l-26.145-72H440c22.082-.027 39.973-17.918 40-40V40c-.027-22.082-17.918-39.973-40-40H40C17.918.027.027 17.918 0 40zm300.586 112H179.434l26.207-72h68.8zM464 320c0 13.254-10.746 24-24 24H40c-13.254 0-24-10.746-24-24v-16h448zM16 40c0-13.254 10.746-24 24-24h400c13.254 0 24 10.746 24 24v248H16zm0 0"/><path d="M40 32h16v16H40zm0 0M72 32h16v16H72zm0 0M104 32h16v16h-16zm0 0M40 64h400v16H40zm0 0M260.238 113.215a7.997 7.997 0 0 0-9.238.539l-75 60.008-35-28a8 8 0 0 0-10 0l-80 64 10 12.496 75-60.02 35 28a8 8 0 0 0 10 0l75.566-60.453 59.204 36.992a8 8 0 0 0 8 .262l81.75-44-4.704 9.402 14.32 7.153 16-32A8.003 8.003 0 0 0 424 96h-39.999v16h8.266l-72 38.754zm0 0"/><path d="M424 152h-16v104h-16v-96h-16v96h-16v-88h-16v88h-16v-64h-16v64h-16v-80h-16v80h-16v-96h-16v96h-16v-80h-16v80h-16v-48h-16v48h-16v-48h-16v48h-16v-64h-16v64h-16v-40H88v40H72v-16H56v16H40v16h400v-16h-16zm0 0M40 96h16v16H40zm0 0M40 128h48v16H40zm0 0M72 96h48v16H72zm0 0"/></svg>