<svg height="512" viewBox="0 0 64 64" width="512" xmlns="http://www.w3.org/2000/svg"><path d="M32 36c2.206 0 4-1.794 4-4h-2c0 1.103-.897 2-2 2s-2-.897-2-2h-2c0 2.206 1.794 4 4 4zM32 7V5a13.017 13.017 0 0 0-9.689 4.333l1.49 1.334A11.017 11.017 0 0 1 32 7zM22.471 12.501l-1.73-1.002a12.89 12.89 0 0 0-1 2.168l1.886.666c.222-.633.507-1.249.844-1.832z"/><path d="M53.613 50.077C53.865 48.733 54 47.366 54 46c0-3.812-.996-7.569-2.879-10.869C49.733 32.701 49 29.863 49 26.923V18c0-9.374-7.626-17-17-17S15 8.626 15 18v8.924c0 2.913-.75 5.782-2.17 8.295a21.94 21.94 0 0 0-2.819 11.489c.035 1.103.181 2.228.396 3.352A15.825 15.825 0 0 0 5 62v1h54v-1c0-4.67-2.019-8.964-5.387-11.923zM12.01 46.646a19.93 19.93 0 0 1 2.561-10.442A18.903 18.903 0 0 0 17 26.924V18c0-8.271 6.729-15 15-15s15 6.729 15 15v8.923c0 3.287.824 6.469 2.384 9.2A19.954 19.954 0 0 1 52 46c0 .905-.069 1.811-.191 2.708a16.016 16.016 0 0 0-2.686-1.42l-10.259-4.197A2.99 2.99 0 0 1 37 40.314v-.718c4.921-3.401 8-9.039 8-15.246v-3.506a8.955 8.955 0 0 0-3.378-7.028l-2.963-2.37-.553 1.106A6.203 6.203 0 0 1 32.528 16H24c-2.757 0-5 2.243-5 5v3.351a18.516 18.516 0 0 0 8 15.246v.718a2.988 2.988 0 0 1-1.864 2.776l-10.259 4.197c-.95.389-1.841.87-2.677 1.415a19.134 19.134 0 0 1-.19-2.057zM40 20h-4a2.996 2.996 0 0 0-2.816 2h-2.369a2.996 2.996 0 0 0-2.816-2h-4c-1.654 0-3 1.346-3 3v-2c0-1.654 1.346-3 3-3h8.528a8.183 8.183 0 0 0 6.743-3.503l1.103.882A6.966 6.966 0 0 1 43 20.845V23c0-1.654-1.346-3-3-3zm1 3v1c0 1.103-.897 2-2 2h-2c-1.103 0-2-.897-2-2v-1c0-.552.449-1 1-1h4c.551 0 1 .448 1 1zm-12 0v1c0 1.103-.897 2-2 2h-2c-1.103 0-2-.897-2-2v-1c0-.552.449-1 1-1h4c.551 0 1 .448 1 1zm-4 5h2c2.206 0 4-1.794 4-4h2c0 2.206 1.794 4 4 4h2c2.206 0 4-1.794 4-4v.351a16.528 16.528 0 0 1-11 15.592 16.527 16.527 0 0 1-11-15.592V24c0 2.206 1.794 4 4 4zm6.684 13.948l.316.106.316-.105a18.69 18.69 0 0 0 2.719-1.152 4.963 4.963 0 0 0 1.186 2.788L32 46.75l-4.222-3.166a4.963 4.963 0 0 0 1.186-2.788c.864.45 1.773.837 2.72 1.152zm-5.79 2.994c.076-.031.144-.074.218-.109l4.447 3.335-3.307 3.968-2.97-6.535zM32 49.561l.328.393L33.852 61h-3.705l1.525-11.046zm1.442-1.392l4.447-3.335c.074.035.142.078.218.109l1.612.659-2.97 6.535zm-17.808.971l6.795-2.78 4.319 9.504 2.504-3.005L28.128 61H17v-6h-2v6H7.035a13.84 13.84 0 0 1 8.599-11.86zM49 61v-6h-2v6H35.872l-1.124-8.141 2.504 3.005 4.32-9.504 6.795 2.78A13.84 13.84 0 0 1 56.966 61z"/></svg>