<svg height="512" viewBox="0 0 300 300" width="512" xmlns="http://www.w3.org/2000/svg"><circle cx="64.358" cy="59.265" r="10" fill="none" stroke="#000" stroke-width="8" stroke-linecap="round" stroke-linejoin="round" stroke-miterlimit="10"/><circle cx="248.358" cy="135.265" r="10" fill="none" stroke="#000" stroke-width="8" stroke-linecap="round" stroke-linejoin="round" stroke-miterlimit="10"/><circle cx="260.358" cy="83.265" r="4.529"/><circle cx="56.358" cy="111.265" r="4.529"/><circle cx="96.358" cy="35.265" r="4.529"/><path d="M229.706 47.917l-14.695 14.695M94.358 132.11v70.825M210.358 119.288v-14.485c0-31.275-24.115-58.093-55.359-59.479-19.786-.878-37.504 8.162-48.605 22.567-4.726 6.132-7.821 13.36-9.659 20.88-1.169 4.787-2.377 10.659-2.377 14.494v16.045M210.358 206.626v-73.387M222.101 231.916c.171 1.464.258 2.949.258 4.447v32.902h-144v-32.902c0-14.82 8.534-28.25 21.776-34.269l32.224-14.647M168.358 187.447l32.224 14.647a36.567 36.567 0 0 1 10.102 6.828" fill="none" stroke="#000" stroke-width="8" stroke-linecap="round" stroke-linejoin="round" stroke-miterlimit="10"/><path d="M166.358 174.793v10.472c0 8.837-7.163 16-16 16s-16-7.163-16-16v-11.283" fill="none" stroke="#000" stroke-width="8" stroke-linecap="round" stroke-linejoin="round" stroke-miterlimit="10"/><path d="M206.481 116.156c-24.123 13.109-83.904-12.188-86.094-32.111l-.383.033c1.405 29.27-21.646 32.022-21.646 32.022a9.998 9.998 0 0 0-5.993 9.53c.114 3.199 2.081 6.09 4.734 7.88 3.217 2.171 5.98 2.017 8.431 1.192 3.969 19.359 18.022 35.548 37.427 41.794 5.563 1.791 11.581 1.62 17.141-.182l1.775-.575c19.093-6.188 33.023-22.039 37.173-41.079 2.441.861 5.222 1.011 8.371-.95 2.549-1.588 4.495-4.194 4.862-7.175a10 10 0 0 0-5.798-10.379zM215.011 47.917l14.695 14.695M61.706 203.917l-14.695 14.695M47.011 203.917l14.695 14.695" fill="none" stroke="#000" stroke-width="8" stroke-linecap="round" stroke-linejoin="round" stroke-miterlimit="10"/><circle cx="172.358" cy="135.265" r="4"/><circle cx="132.358" cy="135.265" r="4"/><g fill="none" stroke="#000" stroke-width="8" stroke-linecap="round" stroke-linejoin="round" stroke-miterlimit="10"><path d="M166.358 229.265h20M198.358 269.265v-20M110.358 269.265v-20"/><circle cx="132.358" cy="135.265" r="14"/><circle cx="172.358" cy="135.265" r="14"/><path d="M146.358 137.265h12M218.911 181.817l-7.024-7.024c-7.799 7.798-12.622 18.572-12.622 30.472 0 23.8 19.294 43.094 43.094 43.094 11.9 0 22.673-4.823 30.472-12.622l-7.942-7.942M242.358 249.265v20M258.358 269.265h-33.92"/><circle cx="242.358" cy="205.265" r="31.283"/><path d="M242.358 173.982c-2.707 0-5.319.38-7.824 1.026l5.992 13.98a10.362 10.362 0 0 0 6.247 5.748l2.671.89a10.36 10.36 0 0 1 6.553 6.553 10.361 10.361 0 0 0 9.83 7.085h7.531c.168-1.313.284-2.642.284-4 0-17.277-14.007-31.282-31.284-31.282zM236.72 222.445l-2.361-1.181v-5.19a9.447 9.447 0 0 0-16.129-6.681l-5.594 5.594c4.149 12.687 16.172 21.811 30.304 21.555l.024-.025-.266-4.957a10.844 10.844 0 0 0-5.978-9.115zM34.358 153.265l8 20 9.527-41.155h26.473"/><path d="M66.358 145.265h2a6 6 0 1 1 0 12H63.26h3.098a8 8 0 0 1 0 16h-4"/></g></svg>