<svg height="512pt" viewBox="0 0 512 512" width="512pt" xmlns="http://www.w3.org/2000/svg"><path d="M501.992 0H53.977c-5.52 0-10 4.477-10 10v160.555l-40 66.672c-6.02 10.03-5.141 22.898 2.187 32.02 5.375 6.69 13.313 10.491 21.863 10.491.211 0 .418 0 .625-.008 5.598-.12 10.88-1.859 15.325-4.933v3.937c0 5.524 4.48 10 10 10H85.64V478c0 18.746 15.254 34 34 34 9.359 0 17.847-3.8 24-9.941 6.156 6.14 14.64 9.941 24 9.941 18.75 0 34-15.254 34-34V288.734h122.714c5.524 0 10-4.476 10-10 0-5.52-4.476-10-10-10H201.641V256.13c0-.074-.008-.145-.012-.215v-60.187l14.48 14.558c14.45 14.528 37.836 15.324 53.239 1.817l24.277-21.286a28.743 28.743 0 0 0 6.188-7.707v38.258c0 5.524 4.476 10 10 10h144c5.519 0 10-4.476 10-10V112.633c0-5.524-4.481-10-10-10h-48c-5.524 0-10 4.476-10 10v16.574h-38c-5.524 0-10 4.477-10 10v23.102h-38a9.944 9.944 0 0 0-6.735 2.62c-.926-6.066-3.77-11.757-8.18-16.124-10.105-10.012-25.757-11.16-37.226-2.739l-10.32 7.582-25.829-25.894c-11.195-11.227-24.964-18.941-39.976-22.621 7.414-8.7 11.906-19.965 11.906-32.266v-5.304c0-22.31-14.742-41.243-34.996-47.563h333.535v248.734h-82.73c-5.524 0-10 4.48-10 10 0 5.524 4.476 10 10 10h92.73c5.524 0 10-4.476 10-10V10c0-5.523-4.476-10-10-10zm-86.18 122.633h28v88.734h-28zm-48 26.574h28v62.16h-28zm-48 33.102h28v29.058h-28zM63.977 268.734v-18.562l21.668-29.492v35.351c0 .031-.004.063-.004.098v12.61H63.977zM167.64 492c-7.72 0-14-6.281-14-14V323.012c0-5.524-4.477-10-10-10-5.52 0-10 4.476-10 10V478c0 7.719-6.282 14-14 14s-14-6.281-14-14V266.125h76V478c0 7.719-6.282 14-14 14zm71.62-318.14a10.002 10.002 0 0 0 13.005.995l17.25-12.675a8.69 8.69 0 0 1 11.312.836 8.639 8.639 0 0 1 2.582 6.464 8.632 8.632 0 0 1-2.973 6.297l-24.273 21.286c-7.488 6.566-18.855 6.175-25.871-.883l-31.57-31.743a10 10 0 0 0-17.09 7.051v74.637h-75.988V190.18a9.997 9.997 0 0 0-6.883-9.504 10.006 10.006 0 0 0-11.176 3.582L34.55 256.445a8.018 8.018 0 0 1-6.328 3.29c-.063.003-.121.003-.18.003a8.005 8.005 0 0 1-6.285-3.015 8.098 8.098 0 0 1-.63-9.207l57.442-95.743c10.77-17.953 30.47-29.105 51.403-29.105h3.664v29.672c0 5.52 4.476 10 10 10 5.523 0 10-4.48 10-10v-29.672h7.433c17.496 0 33.938 6.82 46.293 19.21zM173.454 67.561v5.31c0 16.241-13.062 29.487-29.234 29.796h-1.156c-16.172-.309-29.231-13.555-29.231-29.797v-5.308c0-16.438 13.371-29.813 29.809-29.813 16.441 0 29.812 13.371 29.812 29.813zm-79.625 0v5.31c0 12.8 4.86 24.487 12.824 33.32-17.18 5.28-32.37 16.269-42.675 31.32V20h64.847c-20.254 6.324-34.996 25.254-34.996 47.563zm0 0"/><path d="M325.137 106.602a9.988 9.988 0 0 0 8.683 5.03 9.938 9.938 0 0 0 4.961-1.323l71.746-41.106a9.955 9.955 0 0 0 4.602 5.133 9.929 9.929 0 0 0 4.672 1.168c3.586 0 7.05-1.934 8.847-5.32l10-18.868c.02-.035.028-.07.047-.101.18-.352.344-.707.48-1.07.016-.04.024-.083.04-.122a9.59 9.59 0 0 0 .297-.988c.027-.117.05-.234.078-.351.058-.282.105-.563.14-.844.012-.106.028-.207.036-.313.07-.77.05-1.55-.063-2.328-.012-.094-.031-.183-.047-.277-.05-.3-.117-.598-.199-.895-.027-.097-.05-.199-.082-.297a8.826 8.826 0 0 0-.352-.976c-.02-.05-.035-.098-.054-.145-.145-.32-.301-.636-.48-.949-.02-.035-.044-.066-.063-.101-.016-.028-.028-.055-.043-.082-.043-.075-.102-.137-.145-.207-.156-.247-.32-.485-.492-.711-.078-.102-.152-.2-.234-.293-.196-.239-.403-.461-.614-.68-.062-.059-.117-.121-.18-.18-.288-.277-.59-.535-.902-.773-.027-.02-.054-.035-.082-.055a9.84 9.84 0 0 0-.886-.578c-.094-.055-.184-.102-.278-.152a7.937 7.937 0 0 0-.8-.387 14.973 14.973 0 0 0-.274-.121c-.36-.14-.726-.27-1.098-.367-.039-.012-.078-.016-.117-.028-.34-.086-.683-.152-1.031-.203a10.16 10.16 0 0 0-1.285-.102c-.05 0-.102-.011-.153-.011h-24c-5.519 0-10 4.48-10 10a9.97 9.97 0 0 0 2.458 6.55l-69.426 39.774c-4.797 2.746-6.453 8.856-3.707 13.649zm0 0M485.04 429.914c6.058-6.687 9.757-15.555 9.757-25.27v-9.132c0-20.77-16.899-37.664-37.664-37.664h-.422c-20.77 0-37.664 16.894-37.664 37.664v9.133c0 9.714 3.695 18.582 9.758 25.27a55.091 55.091 0 0 0-16.942 15.64 55.125 55.125 0 0 0-16.937-15.64c6.058-6.688 9.758-15.556 9.758-25.27v-9.133c0-20.77-16.895-37.664-37.664-37.664h-.422c-20.77 0-37.664 16.894-37.664 37.664v9.133c0 9.714 3.699 18.582 9.757 25.27a55.077 55.077 0 0 0-16.937 15.64 55.139 55.139 0 0 0-16.942-15.64c6.063-6.688 9.762-15.556 9.762-25.27v-9.133c0-20.77-16.898-37.664-37.668-37.664h-.418c-20.77 0-37.668 16.894-37.668 37.664v9.133c0 9.714 3.7 18.582 9.762 25.27-16.11 9.53-26.941 27.077-26.941 47.112V502c0 5.523 4.48 10 10 10h270.336c5.523 0 10-4.477 10-10v-24.973c0-20.035-10.832-37.582-26.938-47.113zm-45.993-34.398c0-9.743 7.922-17.668 17.664-17.668h.422c9.738 0 17.664 7.925 17.664 17.668v9.132c0 9.739-7.926 17.664-17.664 17.664h-.422c-9.742 0-17.664-7.925-17.664-17.664zm-90.113 0c0-9.743 7.925-17.668 17.664-17.668h.422c9.738 0 17.664 7.925 17.664 17.668v9.132c0 9.739-7.926 17.664-17.664 17.664h-.422c-9.739 0-17.664-7.925-17.664-17.664zm-90.114 0c0-9.743 7.926-17.668 17.664-17.668h.422c9.742 0 17.664 7.925 17.664 17.668v9.132c0 9.739-7.922 17.664-17.664 17.664h-.422c-9.738 0-17.664-7.925-17.664-17.664zm-17.18 81.511c0-19.144 15.575-34.715 34.715-34.715h.684c19.14 0 34.715 15.57 34.715 34.715V492H241.64zm90.114 0c0-19.144 15.574-34.715 34.715-34.715h.68c19.144 0 34.714 15.57 34.714 34.715V492h-70.11zM491.977 492h-70.114v-14.973c0-19.144 15.574-34.715 34.719-34.715h.68c19.144 0 34.715 15.57 34.715 34.715zm0 0M373.668 285.809a10.093 10.093 0 0 0 2.93-7.07 10.07 10.07 0 0 0-2.93-7.067 10.033 10.033 0 0 0-7.07-2.934 10.013 10.013 0 0 0-10 10c0 2.633 1.058 5.211 2.93 7.07 1.859 1.86 4.429 2.93 7.07 2.93 2.629 0 5.21-1.07 7.07-2.93zm0 0"/></svg>