<svg height="682pt" viewBox="-54 -21 682 682.667" width="682pt" xmlns="http://www.w3.org/2000/svg"><path d="M550.281 0H188.238c-12.336 0-22.375 10.04-22.375 22.375v115.219h-61.476c-12.332 0-22.371 10.039-22.371 22.37v115.224H20.539c-12.332 0-22.371 10.039-22.371 22.375V492.09c0 5.176 4.2 9.375 9.375 9.375s9.375-4.2 9.375-9.375V364.805h369.289v252.82c0 2-1.625 3.625-3.621 3.625H20.539a3.627 3.627 0 0 1-3.621-3.625v-84.71c0-5.18-4.2-9.376-9.375-9.376s-9.375 4.195-9.375 9.375v84.711C-1.832 629.961 8.207 640 20.539 640h362.047c12.34 0 22.371-10.04 22.371-22.375V502.406h61.477c12.34 0 22.378-10.039 22.378-22.375v-35.867c0-5.18-4.199-9.375-9.375-9.375a9.37 9.37 0 0 0-9.375 9.375v35.867c0 2-1.628 3.621-3.628 3.621h-61.477v-186.09c0-12.335-10.031-22.37-22.371-22.37h-281.82V227.21h369.289V403.34c0 5.176 4.199 9.375 9.375 9.375 5.183 0 9.375-4.2 9.375-9.375v-38.527h61.476c12.34 0 22.38-10.04 22.38-22.375V22.375C572.66 10.039 562.62 0 550.28 0zM16.918 297.563c0-2 1.625-3.622 3.621-3.622h121.113v52.114H16.918zm369.289 0v48.492H160.402V293.94h222.184a3.62 3.62 0 0 1 3.621 3.622zM553.91 22.375v48.492H328.102V18.75h222.18c2 0 3.628 1.625 3.628 3.625zM188.238 18.75h121.114v52.117H184.613V22.375c0-2 1.625-3.625 3.625-3.625zm-87.472 141.219c0-2 1.625-3.625 3.62-3.625h121.118v52.117H100.766zM550.28 346.063h-61.476V159.969c0-12.336-10.032-22.375-22.371-22.375H329.578c-5.18 0-9.375 4.199-9.375 9.375a9.372 9.372 0 0 0 9.375 9.375h136.856a3.627 3.627 0 0 1 3.62 3.625v48.492h-225.8v-52.117h44.492a9.37 9.37 0 0 0 9.375-9.375 9.372 9.372 0 0 0-9.375-9.375H184.613V89.617H553.91v252.82c0 2-1.629 3.625-3.629 3.625zm0 0"/><path d="M219.906 54.184a9.375 9.375 0 1 0 0-18.75h-.117c-5.176 0-9.316 4.195-9.316 9.375 0 5.175 4.25 9.375 9.433 9.375zm0 0M246.566 54.172c5.176 0 9.375-4.203 9.375-9.375 0-5.184-4.199-9.375-9.375-9.375h-.117c-5.176 0-9.316 4.191-9.316 9.375 0 5.172 4.258 9.375 9.433 9.375zm0 0M273.227 54.156c5.175 0 9.375-4.195 9.375-9.375s-4.2-9.375-9.375-9.375h-.118c-5.175 0-9.316 4.196-9.316 9.375s4.258 9.375 9.434 9.375zm0 0M136.059 173.027h-.118c-5.175 0-9.316 4.196-9.316 9.375 0 5.176 4.25 9.375 9.434 9.375a9.375 9.375 0 1 0 0-18.75zm0 0M162.816 173.012H162.602c-5.133 0-9.266 4.133-9.317 9.277-.055 5.176 4.153 9.422 9.328 9.473h.106c5.129 0 9.32-4.13 9.375-9.278.05-5.175-4.102-9.418-9.278-9.472zm0 0M189.477 173H189.262c-5.133 0-9.266 4.133-9.317 9.273-.054 5.18 4.153 9.422 9.328 9.477h.106c5.129 0 9.32-4.133 9.375-9.273.05-5.18-4.098-9.422-9.277-9.477zm0 0M52.203 310.621h-.11c-5.175 0-9.316 4.192-9.316 9.375 0 5.18 4.25 9.375 9.426 9.375a9.37 9.37 0 0 0 9.375-9.375 9.367 9.367 0 0 0-9.375-9.375zm0 0M78.871 310.605h-.117c-5.176 0-9.317 4.2-9.317 9.375 0 5.18 4.25 9.375 9.434 9.375a9.375 9.375 0 1 0 0-18.75zm0 0M105.531 310.594h-.117c-5.176 0-9.316 4.195-9.316 9.375s4.25 9.375 9.433 9.375c5.176 0 9.375-4.196 9.375-9.375s-4.199-9.375-9.375-9.375zm0 0M61.508 492.992h279.144a9.372 9.372 0 0 0 9.375-9.375v-79.129a9.375 9.375 0 0 0-9.375-9.375H61.508a9.372 9.372 0 0 0-9.375 9.375v79.13a9.37 9.37 0 0 0 9.375 9.374zm9.375-79.129h260.394v60.38H70.883zm0 0M61.508 529.527h279.144a9.372 9.372 0 0 0 9.375-9.375 9.375 9.375 0 0 0-9.375-9.375H61.508a9.372 9.372 0 0 0-9.375 9.375 9.37 9.37 0 0 0 9.375 9.375zm0 0M61.508 557.43h279.144a9.372 9.372 0 0 0 9.375-9.375 9.372 9.372 0 0 0-9.375-9.375H61.508a9.37 9.37 0 0 0-9.375 9.375 9.37 9.37 0 0 0 9.375 9.375zm0 0M61.508 585.332h279.144a9.372 9.372 0 0 0 9.375-9.375 9.375 9.375 0 0 0-9.375-9.375H61.508a9.372 9.372 0 0 0-9.375 9.375 9.37 9.37 0 0 0 9.375 9.375zm0 0"/></svg>