<svg height="512pt" viewBox="0 0 512 512" width="512pt" xmlns="http://www.w3.org/2000/svg"><path d="M482 164h-96v-36c0-16.543-13.457-30-30-30h-60.11c-5.519 0-10 4.477-10 10s4.481 10 10 10H356c5.516 0 10 4.484 10 10v304c0 5.516-4.484 10-10 10H156c-5.516 0-10-4.484-10-10V128c0-5.516 4.484-10 10-10h59.89c5.524 0 10-4.477 10-10s-4.476-10-10-10H156c-16.543 0-30 13.457-30 30v36H30c-16.543 0-30 13.457-30 30v288c0 16.543 13.457 30 30 30h184c16.543 0 30-13.457 30-30v-20h24v20c0 16.543 13.457 30 30 30h184c16.543 0 30-13.457 30-30V194c0-16.543-13.457-30-30-30zm-96 87.992a47.108 47.108 0 0 1 4-.191c25.77 0 46.734 20.965 46.734 46.73 0 25.774-20.964 46.735-46.734 46.735-1.336 0-2.672-.079-4-.192zm-260 93.082a47.03 47.03 0 0 1-4 .192c-25.77 0-46.734-20.965-46.734-46.73 0-25.77 20.964-46.735 46.734-46.735 1.336 0 2.672.078 4 .191zM224 482c0 5.516-4.484 10-10 10H30c-5.516 0-10-4.484-10-10V194c0-5.516 4.484-10 10-10h96v47.922a68.272 68.272 0 0 0-4-.121c-36.797 0-66.734 29.933-66.734 66.73S85.203 365.266 122 365.266c1.336 0 2.668-.04 4-.121V394H64c-5.523 0-10 4.477-10 10s4.477 10 10 10h62v18c0 3.508.61 6.871 1.719 10H84.855c-5.523 0-10 4.477-10 10s4.477 10 10 10H224zm268 0c0 5.516-4.484 10-10 10H298c-5.516 0-10-4.484-10-10v-20h139.145c5.523 0 10-4.477 10-10s-4.477-10-10-10H384.28A29.86 29.86 0 0 0 386 432v-18h62c5.523 0 10-4.477 10-10s-4.477-10-10-10h-62v-28.855a65.03 65.03 0 0 0 4 .125c36.797 0 66.734-29.938 66.734-66.735S426.797 231.801 390 231.801c-1.336 0-2.668.043-4 .12V184h96c5.516 0 10 4.484 10 10zm0 0"/><path d="M324 350c0-5.523-4.477-10-10-10H198c-5.523 0-10 4.477-10 10s4.477 10 10 10h116c5.523 0 10-4.477 10-10zm0 0M218.855 388c-5.523 0-10 4.477-10 10s4.477 10 10 10h74.293c5.52 0 10-4.477 10-10s-4.48-10-10-10zm0 0M256 152c-45.215 0-82 36.785-82 82 0 24.086 10.441 45.777 27.031 60.793.442.469.934.89 1.461 1.27 14.375 12.41 33.074 19.94 53.508 19.94s39.125-7.53 53.5-19.937a9.792 9.792 0 0 0 1.473-1.277C327.563 279.773 338 258.086 338 234c0-45.215-36.785-82-82-82zm-35.895 132.504c6.329-13.832 20.297-23.05 35.895-23.05s29.566 9.218 35.895 23.05C281.758 291.73 269.37 296 256 296s-25.758-4.27-35.895-11.496zm23.313-55.629v-5.645c0-6.94 5.644-12.582 12.582-12.582s12.582 5.645 12.582 12.582v5.645c0 6.938-5.644 12.578-12.582 12.578s-12.582-5.64-12.582-12.578zm63.207 40.852c-5.844-9.465-14.23-17.063-24.086-21.993a32.372 32.372 0 0 0 6.043-18.863v-5.644c0-17.965-14.617-32.579-32.582-32.579s-32.582 14.614-32.582 32.579v5.644a32.4 32.4 0 0 0 6.043 18.863c-9.852 4.93-18.238 12.528-24.086 21.993C198.223 259.617 194 247.297 194 234c0-34.187 27.813-62 62-62s62 27.813 62 62c0 13.297-4.223 25.617-11.375 35.727zm0 0M255.895 49.52c5.523 0 10-4.48 10-10V10c0-5.523-4.477-10-10-10-5.524 0-10 4.477-10 10v29.52c0 5.52 4.476 10 10 10zm0 0M182.129 71.07a9.968 9.968 0 0 0 7.07 2.93 9.961 9.961 0 0 0 7.07-2.93 9.996 9.996 0 0 0 0-14.14l-17.32-17.325c-3.906-3.902-10.238-3.902-14.144 0-3.907 3.907-3.907 10.239 0 14.145zm0 0M322.8 74a9.968 9.968 0 0 0 7.071-2.93l17.324-17.32c3.903-3.906 3.903-10.238 0-14.145-3.906-3.902-10.234-3.902-14.144 0L315.727 56.93c-3.903 3.902-3.903 10.234 0 14.14A9.976 9.976 0 0 0 322.8 74zm0 0M256 98a10.08 10.08 0 0 0-7.07 2.93c-1.86 1.86-2.93 4.441-2.93 7.07s1.07 5.21 2.93 7.07c1.86 1.86 4.441 2.93 7.07 2.93s5.21-1.07 7.07-2.93c1.86-1.86 2.93-4.441 2.93-7.07s-1.07-5.21-2.93-7.07A10.08 10.08 0 0 0 256 98zm0 0"/></svg>