<svg version="1.1" id="Layer_1" xmlns="http://www.w3.org/2000/svg" x="0" y="0" viewBox="0 0 1024 318" xml:space="preserve"><style>.st0{fill:#efefef}</style><path class="st0" d="M2.77 4.59c1.37-.53 2.75-1.51 4.13-1.52C25.01 2.97 43.12 3 61.23 3h158.23c4.56 0 4.56.01 4.56 4.48v64.51c0 4.68-.06 4.73-4.85 4.74h-63.86c-4.78 0-4.78.01-4.78 4.71v225.81c0 .95.01 1.91 0 2.86-.05 3.82-.4 4.19-4.17 4.19-12.82.01-25.63 0-38.45 0H81.22c-4.32 0-4.41-.09-4.41-4.5V83.04c0-7.13.16-6.29-6.41-6.3-20.97-.02-41.94-.02-62.91.02-2.01 0-3.8-.12-4.72-2.25V4.59zM801 100.32V7.97c0-4.95 0-4.96 4.81-4.96h64.18c4.71 0 4.72.01 4.72 4.77v214.05c0 12.37 6.39 18.75 18.79 18.75 12.18 0 24.36.01 36.54 0 11.51-.01 18.18-6.64 18.18-18.09V8.12c0-5.11 0-5.11 5.04-5.11h63.87c4.81 0 4.81.01 4.81 4.96v235.66c0 39.07-29.37 69.78-68.38 70.54-28.58.56-57.2.49-85.78-.08-36.83-.74-66.75-31.97-66.77-68.87-.03-48.3-.01-96.6-.01-144.9zM755.73 130.31v115.01c0 35.08-26.8 64.83-61.68 68.43-3.26.34-6.54.52-9.82.53-48.08.03-96.15.02-144.23.02-4.76 0-4.79-.03-4.79-4.77v-182.6c0-4.69.01-4.69 4.8-4.69h64.49c4.39 0 4.42.04 4.42 4.45v108.89c0 5 0 5 4.88 5 17.05 0 34.1.03 51.15-.01 8.87-.02 15.48-5.05 17.24-13.01.29-1.32.33-2.73.33-4.09.02-62.17.01-67.33.01-129.5 0-9.63-6.57-16.37-16.23-16.58-4.34-.09-8.68-.02-13.02-.02h-113.1c-4.93 0-4.97-.04-4.97-4.95V7.29c0-4.25.02-4.27 4.24-4.27 49.35 0 98.69-.02 148.04 0 33.57.01 63.24 26.13 67.56 59.49.41 3.14.64 6.32.64 9.49.06 38.43.04 19.87.04 58.31zM378.54 3.01H484.3c4.91 0 4.92.01 4.92 4.98v64.16c0 4.27-.28 4.57-4.45 4.57-70.72.01-141.44.01-212.16 0-4.09 0-4.53-.46-4.53-4.59-.01-21.6-.01-43.2 0-64.8 0-3.96.38-4.33 4.38-4.33 35.36 0 70.72.01 106.08.01zM378.7 241.58h106.1c4.3 0 4.43.13 4.43 4.51 0 21.6.01 43.21 0 64.81 0 4.11-.28 4.4-4.29 4.4H272.43c-3.87 0-4.34-.48-4.34-4.42-.01-21.71-.01-43.42 0-65.13 0-3.76.44-4.18 4.2-4.18 35.46.01 70.93.01 106.41.01z"/><path d="M378.87 122.24h105.45c4.87 0 4.91.03 4.91 5.04v64.16c0 4.3-.21 4.52-4.47 4.52H272.59c-4.1 0-4.5-.41-4.5-4.57-.01-21.6-.01-43.2 0-64.8 0-3.93.44-4.35 4.39-4.35h106.39z" fill="#ffa72f"/></svg>