<?xml version="1.0" encoding="utf-8"?>
<!-- Generator: Adobe Illustrator 24.1.0, SVG Export Plug-In . SVG Version: 6.00 Build 0)  -->
<svg version="1.1" id="Layer_1" xmlns="http://www.w3.org/2000/svg" xmlns:xlink="http://www.w3.org/1999/xlink" x="0px" y="0px"
	 viewBox="0 0 1024 318" style="enable-background:new 0 0 1024 318;" xml:space="preserve">
<style type="text/css">
	.st0{fill:#EFEFEF;}
	.st1{fill:#FFA72F;}
</style>
<path class="st0" d="M2.77,4.59C4.14,4.06,5.52,3.08,6.9,3.07c18.11-0.1,36.22-0.07,54.33-0.07c52.74,0,105.49,0,158.23,0
	c4.56,0,4.56,0.01,4.56,4.48c0,21.5,0,43,0,64.51c0,4.68-0.06,4.73-4.85,4.74c-21.29,0-42.58,0-63.86,0c-4.78,0-4.78,0.01-4.78,4.71
	c0,94.27,0,131.54,0,225.81c0,0.95,0.01,1.91,0,2.86c-0.05,3.82-0.4,4.19-4.17,4.19c-12.82,0.01-25.63,0-38.45,0
	c-8.9,0-17.79,0-26.69,0c-4.32,0-4.41-0.09-4.41-4.5c0-94.59,0-132.18,0-226.76c0-7.13,0.16-6.29-6.41-6.3
	c-20.97-0.02-41.94-0.02-62.91,0.02c-2.01,0-3.8-0.12-4.72-2.25C2.77,51.2,2.77,27.9,2.77,4.59z"/>
<path class="st0" d="M801,100.32c0-49.78,0-42.57,0-92.35c0-4.95,0-4.96,4.81-4.96c21.39,0,42.79,0,64.18,0
	c4.71,0,4.72,0.01,4.72,4.77c0,90.35,0,123.7,0,214.05c0,12.37,6.39,18.75,18.79,18.75c12.18,0,24.36,0.01,36.54,0
	c11.51-0.01,18.18-6.64,18.18-18.09c0-90.46,0-123.92,0-214.37c0-5.11,0-5.11,5.04-5.11c21.29,0,42.58,0,63.87,0
	c4.81,0,4.81,0.01,4.81,4.96c0,97.55,0,138.11,0,235.66c0,39.07-29.37,69.78-68.38,70.54c-28.58,0.56-57.2,0.49-85.78-0.08
	c-36.83-0.74-66.75-31.97-66.77-68.87C800.98,196.92,801,148.62,801,100.32z"/>
<path class="st0" d="M755.73,130.31c0,38.34,0,76.68,0,115.01c0,35.08-26.8,64.83-61.68,68.43c-3.26,0.34-6.54,0.52-9.82,0.53
	c-48.08,0.03-96.15,0.02-144.23,0.02c-4.76,0-4.79-0.03-4.79-4.77c0-70.53,0-112.07,0-182.6c0-4.69,0.01-4.69,4.8-4.69
	c21.5,0,42.99,0,64.49,0c4.39,0,4.42,0.04,4.42,4.45c0,45.96,0,62.93,0,108.89c0,5,0,5,4.88,5c17.05,0,34.1,0.03,51.15-0.01
	c8.87-0.02,15.48-5.05,17.24-13.01c0.29-1.32,0.33-2.73,0.33-4.09c0.02-62.17,0.01-67.33,0.01-129.5c0-9.63-6.57-16.37-16.23-16.58
	c-4.34-0.09-8.68-0.02-13.02-0.02c-37.7,0-75.4,0-113.1,0c-4.93,0-4.97-0.04-4.97-4.95c0-21.71,0-43.42,0-65.13
	c0-4.25,0.02-4.27,4.24-4.27c49.35,0,98.69-0.02,148.04,0c33.57,0.01,63.24,26.13,67.56,59.49c0.41,3.14,0.64,6.32,0.64,9.49
	C755.75,110.43,755.73,91.87,755.73,130.31z"/>
<path class="st0" d="M378.54,3.01c35.25,0,70.51,0,105.76,0c4.91,0,4.92,0.01,4.92,4.98c0,21.39,0,42.77,0,64.16
	c0,4.27-0.28,4.57-4.45,4.57c-70.72,0.01-141.44,0.01-212.16,0c-4.09,0-4.53-0.46-4.53-4.59c-0.01-21.6-0.01-43.2,0-64.8
	c0-3.96,0.38-4.33,4.38-4.33C307.82,3,343.18,3.01,378.54,3.01z"/>
<path class="st0" d="M378.7,241.58c35.37,0,70.73,0,106.1,0c4.3,0,4.43,0.13,4.43,4.51c0,21.6,0.01,43.21,0,64.81
	c0,4.11-0.28,4.4-4.29,4.4c-70.84,0-141.67,0-212.51,0c-3.87,0-4.34-0.48-4.34-4.42c-0.01-21.71-0.01-43.42,0-65.13
	c0-3.76,0.44-4.18,4.2-4.18C307.75,241.58,343.22,241.58,378.7,241.58z"/>
<path class="st1" d="M378.87,122.24c35.15,0,70.3,0,105.45,0c4.87,0,4.91,0.03,4.91,5.04c0,21.39,0,42.78,0,64.16
	c0,4.3-0.21,4.52-4.47,4.52c-70.72,0-141.45,0-212.17,0c-4.1,0-4.5-0.41-4.5-4.57c-0.01-21.6-0.01-43.2,0-64.8
	c0-3.93,0.44-4.35,4.39-4.35C307.94,122.24,343.4,122.24,378.87,122.24z"/>
</svg>
