<svg xmlns="http://www.w3.org/2000/svg" viewBox="0 0 426.181 426.181"><path d="M372.02 274.428l-143.339-27.641-9.671-50.148c34.195-8.055 59.731-38.801 59.731-75.42 0-42.732-34.767-77.499-77.5-77.5-42.733.001-77.499 34.768-77.499 77.499 0 38.448 28.149 70.432 64.916 76.463l8.289 42.987-42.979-8.288c-2.584-15.917-10.043-30.593-21.67-42.219-14.638-14.638-34.101-22.699-54.801-22.698-20.701 0-40.163 8.061-54.801 22.699C8.061 204.799-.001 224.261 0 244.961c0 42.734 34.766 77.501 77.499 77.501 36.617 0 67.364-25.536 75.42-59.731l50.149 9.67 15.446 80.104c-7.891.439-14.159 6.957-14.159 14.958 0 8.284 6.716 15 15 15h29.471c8.284 0 15-6.716 15-15 0-8.204-6.59-14.86-14.765-14.988L234.8 278.521l131.54 25.365c.959.186 1.914.274 2.856.274 7.045 0 13.328-4.988 14.712-12.163 1.569-8.135-3.753-16.001-11.888-17.569zm-218.277-153.21c0-26.19 21.309-47.498 47.499-47.499 26.191.001 47.5 21.309 47.5 47.5s-21.308 47.499-47.497 47.499h-.002c-26.191 0-47.5-21.309-47.5-47.5zM77.499 292.462C51.308 292.462 30 271.153 30 244.961c0-12.688 4.94-24.615 13.911-33.586 8.972-8.972 20.9-13.912 33.588-13.912 12.687-.001 24.616 4.939 33.588 13.911s13.912 20.9 13.912 33.588c-.001 26.191-21.31 47.5-47.5 47.5zM57 382.462h15c8.284 0 15-6.716 15-15 0-8.284-6.716-15-15-15H57c-8.284 0-15 6.716-15 15 0 8.284 6.716 15 15 15z"/><path d="M337.239 382.462c8.284 0 15-6.716 15-15 0-8.284-6.716-15-15-15h-29.471c-8.284 0-15 6.716-15 15 0 8.284 6.716 15 15 15h29.471zM160.413 382.462c8.284 0 15-6.716 15-15 0-8.284-6.716-15-15-15h-29.471c-8.284 0-15 6.716-15 15 0 8.284 6.716 15 15 15h29.471zM411.181 352.462h-15c-8.284 0-15 6.716-15 15 0 8.284 6.716 15 15 15h15c8.284 0 15-6.716 15-15 0-8.284-6.716-15-15-15z"/></svg>