<svg height="511pt" viewBox="0 0 511.999 511" width="511pt" xmlns="http://www.w3.org/2000/svg"><path d="M34.074 6.348c-7.797-7.797-20.433-7.797-28.226 0-7.797 7.793-7.797 20.433 0 28.226l89.218 89.219c-44.398 36.508-73.074 80.617-87.02 105.445-9.378 16.7-9.456 36.68-.206 53.446 12.012 21.777 38.289 63.668 79.289 99.523 50.047 43.77 106.668 66.086 168.305 66.375.09 0 .175.012.265.012.172 0 .344-.004.516-.004.137 0 .277.004.418.004 45.222 0 88.054-12.008 127.52-35.711l92.742 92.738a19.893 19.893 0 0 0 14.113 5.848c5.11 0 10.215-1.95 14.113-5.848 7.797-7.793 7.797-20.434 0-28.226zm154.727 211.18l28.93 28.929a40.096 40.096 0 0 0-1.043 12.684c1.492 19.433 17.207 35.144 36.64 36.64 4.402.336 8.66-.058 12.684-1.043l28.937 28.938c-29.824 17.035-68.187 12.66-93.504-12.653-25.187-25.183-29.61-63.675-12.644-93.496zM42.793 263.401c-2.527-4.582-2.504-10.047.062-14.617 12.82-22.828 39.477-63.828 80.583-96.62l36.449 36.448c-32.25 46.137-27.403 109.907 13.332 150.637 22.996 23 53.12 34.578 83.293 34.578 23.543 0 47.113-7.058 67.347-21.242l30.723 30.723c-30.785 16.75-63.77 25.27-98.336 25.359C135.81 408.453 66.86 307.035 42.793 263.402zm134.602-165.66c-2.997-10.61 3.171-21.637 13.78-24.637 23.18-6.546 44.59-9.734 65.454-9.734 61.445 0 118.18 22.371 168.629 66.492 40.988 35.848 67.527 77.696 79.695 99.45 9.32 16.652 9.399 36.578.211 53.296a19.816 19.816 0 0 1-2.836 3.934c-8.785 15.473-22.726 37.367-42.043 60.012a19.918 19.918 0 0 1-15.195 7.008 19.875 19.875 0 0 1-12.945-4.774c-8.387-7.156-9.383-19.754-2.23-28.14 18.815-22.055 31.933-43.305 39.62-57.247a20.385 20.385 0 0 1 1.805-2.718c1.25-3.918.84-8.192-1.223-11.88-24.476-43.753-94.277-145.511-213.488-145.511-17.14 0-35 2.691-54.602 8.227-10.605 2.996-21.636-3.168-24.632-13.778zm81.488 40.508c30.543.617 59.262 12.86 80.87 34.465 22.24 22.242 34.49 51.812 34.49 83.27 0 11.023-8.934 19.956-19.962 19.956-11.023 0-19.957-8.933-19.957-19.957 0-20.793-8.097-40.34-22.8-55.043-14.282-14.28-33.266-22.37-53.454-22.78-11.02-.224-19.773-9.34-19.55-20.36.226-11.024 9.312-19.774 20.363-19.551zm0 0"/></svg>