<svg xmlns="http://www.w3.org/2000/svg" viewBox="0 0 316.431 188.028"><g fill="#efeef1"><path d="M82.948 57.716c8.507-14.848 24.121-28.162 45.583-36.021.695-.254 1.33-.535 1.92-.834l-5.592-14.462-.03-.003C92.26 5.861 52.52 25.936 27.778 60.081c-14.053 19.393-20.92 38.885-20.92 59.27l.045.001c-.015.567-.045 1.129-.045 1.698 0 35.334 29.873 63.978 66.721 63.978 36.849 0 66.722-28.644 66.722-63.978 0-32.282-24.942-58.965-57.353-63.334zM252.103 57.716c8.506-14.848 24.121-28.162 45.582-36.021a17.54 17.54 0 001.918-.834l-5.59-14.462c-.012-.001-.02-.003-.031-.003-32.568-.534-72.309 19.541-97.049 53.685-14.053 19.393-20.92 38.885-20.92 59.27l.045.001c-.016.567-.045 1.129-.045 1.698 0 35.334 29.873 63.978 66.721 63.978s66.719-28.644 66.719-63.978c0-32.282-24.942-58.965-57.35-63.334z"/></g></svg>