<svg xmlns="http://www.w3.org/2000/svg" xmlns:xlink="http://www.w3.org/1999/xlink" viewBox="0 0 612 792"><defs><path id="a" d="M50 151h511v491H50z"/></defs><clipPath id="b"><use xlink:href="#a" overflow="visible"/></clipPath><path d="M559.664 337a27.12 27.12 0 00-23.359-18.652l-147.508-13.395L330.5 168.469c-4.305-10.028-14.098-16.5-25-16.5a27.111 27.111 0 00-24.977 16.5l-58.296 136.484-147.532 13.395c-10.816.996-19.972 8.324-23.359 18.652-3.363 10.344-.258 21.695 7.922 28.867l111.508 97.778-32.879 144.804c-2.403 10.645 1.726 21.656 10.562 28.043a27.046 27.046 0 0015.926 5.172c4.813 0 9.625-1.277 13.926-3.852L305.5 561.758l127.176 76.054a27.142 27.142 0 0029.875-1.32c8.836-6.387 12.969-17.398 10.562-28.043l-32.879-144.804 111.508-97.778A27.191 27.191 0 00559.664 337zm0 0" clip-path="url(#b)" fill="#faa532"/></svg>